<svg width="64" height="64" viewBox="0 0 64 64" fill="none" xmlns="http://www.w3.org/2000/svg">
  <defs>
    <linearGradient id="pinGradient" x1="0%" y1="0%" x2="100%" y2="100%">
      <stop offset="0%" style="stop-color:#BD6C73;stop-opacity:1" />
      <stop offset="100%" style="stop-color:#A2B69C;stop-opacity:1" />
    </linearGradient>
  </defs>

  <!-- Shadow -->
  <ellipse cx="32" cy="58" rx="12" ry="4" fill="#2E365A" opacity="0.2"/>

  <!-- Pin Background Glow -->
  <path d="M32 8 C20 8 10 18 10 30 C10 45 32 60 32 60 C32 60 54 45 54 30 C54 18 44 8 32 8 Z"
        fill="url(#pinGradient)"
        opacity="0.3"/>

  <!-- Main Pin -->
  <path d="M32 6 C19 6 8 17 8 30 C8 46 32 62 32 62 C32 62 56 46 56 30 C56 17 45 6 32 6 Z"
        fill="url(#pinGradient)"/>

  <!-- Inner Circle -->
  <circle cx="32" cy="28" r="10" fill="white"/>
  <circle cx="32" cy="28" r="7" fill="#2E365A"/>

  <!-- Car Icon Inside Pin -->
  <g transform="translate(24, 22)">
    <path d="M2 5 L3 2 L13 2 L14 5 L15 5 L15 8 L1 8 L1 5 Z"
          fill="white"
          stroke="white"
          stroke-width="0.5"/>
    <circle cx="4" cy="8" r="1.5" fill="white"/>
    <circle cx="12" cy="8" r="1.5" fill="white"/>
  </g>
</svg>
