<svg width="1024" height="768" version="1.1" xmlns="http://www.w3.org/2000/svg" desc="Created with imagetracer.js version 1.2.6" ><path fill="rgb(246,244,251)" stroke="rgb(246,244,251)" stroke-width="1" opacity="1" d="M 367.5 280 L 374 280.5 L 367.5 281 L 366 282.5 L 365.5 284 L 364.5 282 L 367.5 280 Z " /><path fill="rgb(246,244,251)" stroke="rgb(246,244,251)" stroke-width="1" opacity="1" d="M 412.5 280 L 468 280.5 L 412.5 281 L 412.5 280 Z " /><path fill="rgb(246,244,251)" stroke="rgb(246,244,251)" stroke-width="1" opacity="1" d="M 480.5 280 L 490 280.5 L 480.5 281 L 480.5 280 Z " /><path fill="rgb(246,244,251)" stroke="rgb(246,244,251)" stroke-width="1" opacity="1" d="M 493.5 281 L 496 281.5 L 493.5 282 L 493.5 281 Z " /><path fill="rgb(246,244,251)" stroke="rgb(246,244,251)" stroke-width="1" opacity="1" d="M 368.5 282 L 437 282.5 L 368 283 L 367.5 320 L 367 283.5 L 368.5 282 Z " /><path fill="rgb(246,244,251)" stroke="rgb(246,244,251)" stroke-width="1" opacity="1" d="M 468.5 282 L 482 282.5 L 468.5 283 L 468.5 282 Z " /><path fill="rgb(246,244,251)" stroke="rgb(246,244,251)" stroke-width="1" opacity="1" d="M 493.5 283 L 498 283.5 L 493.5 284 L 493.5 283 Z " /><path fill="rgb(246,244,251)" stroke="rgb(246,244,251)" stroke-width="1" opacity="1" d="M 501.5 284 L 505 284.5 L 501.5 285 L 501.5 284 Z " /><path fill="rgb(246,244,251)" stroke="rgb(246,244,251)" stroke-width="1" opacity="1" d="M 509.5 284 L 508.5 286 L 507 285.5 L 509.5 284 Z " /><path fill="rgb(246,244,251)" stroke="rgb(246,244,251)" stroke-width="1" opacity="1" d="M 511.5 285 L 518 287.5 L 516.5 288 L 512.5 287 L 511.5 285 Z " /><path fill="rgb(246,244,251)" stroke="rgb(246,244,251)" stroke-width="1" opacity="1" d="M 535.5 292 L 539 293.5 L 537.5 294 L 535.5 293 L 535.5 295 L 533 293.5 L 535.5 292 Z " /><path fill="rgb(246,244,251)" stroke="rgb(246,244,251)" stroke-width="1" opacity="1" d="M 538.5 295 L 541 296.5 L 539.5 296 L 538.5 295 Z " /><path fill="rgb(246,244,251)" stroke="rgb(246,244,251)" stroke-width="1" opacity="1" d="M 543.5 296 L 545 296.5 L 543 297.5 L 546 298 L 545.5 300 L 542 297.5 L 543.5 296 Z " /><path fill="rgb(246,244,251)" stroke="rgb(246,244,251)" stroke-width="1" opacity="1" d="M 549.5 301 L 553 303.5 L 551.5 303 L 549.5 301 Z " /><path fill="rgb(246,244,251)" stroke="rgb(246,244,251)" stroke-width="1" opacity="1" d="M 554.5 304 L 557 305.5 L 555.5 306 L 554.5 304 Z " /><path fill="rgb(246,244,251)" stroke="rgb(246,244,251)" stroke-width="1" opacity="1" d="M 559.5 304 L 560.5 306 L 559 306.5 L 561.5 310 L 558 308 L 559.5 304 Z " /><path fill="rgb(246,244,251)" stroke="rgb(246,244,251)" stroke-width="1" opacity="1" d="M 563.5 310 L 564.5 312 L 563.5 310 Z " /><path fill="rgb(246,244,251)" stroke="rgb(246,244,251)" stroke-width="1" opacity="1" d="M 566.5 312 L 568.5 313 L 570.5 313 Q 572.8 312.3 572 314.5 L 569.5 315 L 566.5 312 Z " /><path fill="rgb(246,244,251)" stroke="rgb(246,244,251)" stroke-width="1" opacity="1" d="M 574.5 316 L 576 319 L 574 318.5 L 574.5 316 Z " /><path fill="rgb(246,244,251)" stroke="rgb(246,244,251)" stroke-width="1" opacity="1" d="M 369.5 320 L 381 320.5 L 369.5 321 L 369.5 320 Z " /><path fill="rgb(246,244,251)" stroke="rgb(246,244,251)" stroke-width="1" opacity="1" d="M 464.5 320 L 490 320.5 L 464.5 321 L 464.5 320 Z " /><path fill="rgb(246,244,251)" stroke="rgb(246,244,251)" stroke-width="1" opacity="1" d="M 577.5 320 L 579.5 321 L 581.5 321 Q 583.8 320.3 583 322.5 Q 581.3 325.8 579.5 322 L 577.5 320 Z " /><path fill="rgb(246,244,251)" stroke="rgb(246,244,251)" stroke-width="1" opacity="1" d="M 494.5 321 L 498 321.5 L 494 322.5 L 498 323.5 L 494.5 324 L 490 322.5 L 494.5 321 Z " /><path fill="rgb(246,244,251)" stroke="rgb(246,244,251)" stroke-width="1" opacity="1" d="M 477.5 322 L 488 322.5 L 477.5 323 L 477.5 322 Z " /><path fill="rgb(246,244,251)" stroke="rgb(246,244,251)" stroke-width="1" opacity="1" d="M 508.5 324 L 518 327.5 L 515.5 328 L 513.5 327 L 510.5 328 L 510.5 327 L 513 326.5 Q 507.8 326.3 508.5 324 Z " /><path fill="rgb(246,244,251)" stroke="rgb(246,244,251)" stroke-width="1" opacity="1" d="M 583.5 324 L 584.5 326 L 583.5 324 Z " /><path fill="rgb(246,244,251)" stroke="rgb(246,244,251)" stroke-width="1" opacity="1" d="M 521.5 329 L 524 330.5 L 520 332 L 521.5 329 Z " /><path fill="rgb(246,244,251)" stroke="rgb(246,244,251)" stroke-width="1" opacity="1" d="M 591.5 329 L 594.5 330 L 596.5 329 L 596 330.5 L 595.5 332 L 591.5 330 L 591.5 329 Z " /><path fill="rgb(246,244,251)" stroke="rgb(246,244,251)" stroke-width="1" opacity="1" d="M 527.5 332 L 530 333.5 L 528.5 334 L 527.5 332 Z " /><path fill="rgb(246,244,251)" stroke="rgb(246,244,251)" stroke-width="1" opacity="1" d="M 597.5 332 L 600 333.5 L 598.5 333 L 597.5 332 Z " /><path fill="rgb(246,244,251)" stroke="rgb(246,244,251)" stroke-width="1" opacity="1" d="M 603.5 332 L 604.5 334 Q 601.7 334.7 603.5 332 Z " /><path fill="rgb(246,244,251)" stroke="rgb(246,244,251)" stroke-width="1" opacity="1" d="M 531.5 334 L 532.5 336 Q 529.7 336.7 531.5 334 Z " /><path fill="rgb(246,244,251)" stroke="rgb(246,244,251)" stroke-width="1" opacity="1" d="M 534.5 336 L 535 340 Q 532.3 341.1 533 338.5 L 532.5 337 L 534.5 336 Z " /><path fill="rgb(246,244,251)" stroke="rgb(246,244,251)" stroke-width="1" opacity="1" d="M 614.5 336 L 617 337.5 L 611.5 339 L 612.5 337 L 614 337.5 L 614.5 336 Z " /><path fill="rgb(246,244,251)" stroke="rgb(246,244,251)" stroke-width="1" opacity="1" d="M 537.5 338 L 538.5 340 L 537.5 338 Z " /><path fill="rgb(246,244,251)" stroke="rgb(246,244,251)" stroke-width="1" opacity="1" d="M 540.5 340 Q 543.3 341.3 541 342.5 Q 540.3 345.1 543 344 L 543.5 342 L 545.5 345 L 285 344.5 L 540 344 L 541 341.5 L 540.5 340 Z " /><path fill="rgb(246,244,251)" stroke="rgb(246,244,251)" stroke-width="1" opacity="1" d="M 622.5 341 L 626 341.5 L 622.5 342 L 622.5 341 Z " /><path fill="rgb(246,244,251)" stroke="rgb(246,244,251)" stroke-width="1" opacity="1" d="M 633.5 341 Q 639.3 340.2 641 343.5 L 639.5 344 L 637.5 344 L 633 343.5 L 638 342.5 L 633.5 342 L 633.5 341 Z " /><path fill="rgb(246,244,251)" stroke="rgb(246,244,251)" stroke-width="1" opacity="1" d="M 627.5 342 L 630 342.5 L 627.5 343 L 627.5 342 Z " /><path fill="rgb(246,244,251)" stroke="rgb(246,244,251)" stroke-width="1" opacity="1" d="M 644.5 344 L 684 344.5 L 644.5 345 L 644.5 344 Z " /><path fill="rgb(246,244,251)" stroke="rgb(246,244,251)" stroke-width="1" opacity="1" d="M 694.5 344 L 693.5 346 L 691 345.5 L 694.5 344 Z " /><path fill="rgb(246,244,251)" stroke="rgb(246,244,251)" stroke-width="1" opacity="1" d="M 697.5 344 L 701 345.5 L 699.5 346 L 697.5 344 Z " /><path fill="rgb(246,244,251)" stroke="rgb(246,244,251)" stroke-width="1" opacity="1" d="M 709.5 349 L 712 350.5 L 710.5 351 L 709.5 349 Z " /><path fill="rgb(246,244,251)" stroke="rgb(246,244,251)" stroke-width="1" opacity="1" d="M 715.5 353 L 717 356.5 L 715 355.5 L 715.5 353 Z " /><path fill="rgb(246,244,251)" stroke="rgb(246,244,251)" stroke-width="1" opacity="1" d="M 719.5 358 Q 721.7 362.3 724 360.5 L 723 361.5 L 725.5 365 L 719.5 358 Z " /><path fill="rgb(246,244,251)" stroke="rgb(246,244,251)" stroke-width="1" opacity="1" d="M 728.5 366 L 729.5 370 Q 725 368 728.5 366 Z " /><path fill="rgb(246,244,251)" stroke="rgb(246,244,251)" stroke-width="1" opacity="1" d="M 731.5 369 L 732 370.5 Q 729.5 372 733 373.5 L 734 375.5 L 732 376 L 730 371.5 L 731.5 369 Z " /><path fill="rgb(246,244,251)" stroke="rgb(246,244,251)" stroke-width="1" opacity="1" d="M 734.5 379 L 736 381.5 L 735 381.5 L 734.5 379 Z " /><path fill="rgb(246,244,251)" stroke="rgb(246,244,251)" stroke-width="1" opacity="1" d="M 284.5 380 L 286 383.5 L 284 382.5 L 284.5 380 Z " /><path fill="rgb(246,244,251)" stroke="rgb(246,244,251)" stroke-width="1" opacity="1" d="M 289.5 383 L 316 383.5 L 289.5 384 L 289.5 383 Z " /><path fill="rgb(246,244,251)" stroke="rgb(246,244,251)" stroke-width="1" opacity="1" d="M 488.5 383 L 494 383.5 L 488.5 384 L 488.5 383 Z " /><path fill="rgb(246,244,251)" stroke="rgb(246,244,251)" stroke-width="1" opacity="1" d="M 736.5 384 L 739 384.5 L 736.5 385 L 736.5 384 Z " /><path fill="rgb(246,244,251)" stroke="rgb(246,244,251)" stroke-width="1" opacity="1" d="M 689.5 385 L 691.5 385 L 695 387.5 L 692.5 386 Q 690.3 385.3 691 387.5 L 689 386.5 L 689.5 385 Z " /><path fill="rgb(246,244,251)" stroke="rgb(246,244,251)" stroke-width="1" opacity="1" d="M 738.5 386 Q 740.8 386.8 740 390.5 L 739 390.5 L 738.5 387 L 737.5 389 L 737 387.5 L 738.5 386 Z " /><path fill="rgb(246,244,251)" stroke="rgb(246,244,251)" stroke-width="1" opacity="1" d="M 696.5 389 L 698.5 392 L 696.5 389 Z " /><path fill="rgb(246,244,251)" stroke="rgb(246,244,251)" stroke-width="1" opacity="1" d="M 376.5 392 Q 381.3 392.3 383 395.5 L 379.5 396 L 379.5 395 L 381 394.5 L 378.5 394 L 376.5 395 L 376.5 392 Z " /><path fill="rgb(246,244,251)" stroke="rgb(246,244,251)" stroke-width="1" opacity="1" d="M 629 392 L 634.5 393 Q 636 390.5 641.5 392 L 647 393.5 L 644.5 395 Q 641.6 392.4 635.5 393 L 635.5 395 L 629 394 L 629 392 Z " /><path fill="rgb(246,244,251)" stroke="rgb(246,244,251)" stroke-width="1" opacity="1" d="M 365.5 393 L 370 393.5 L 365.5 394 L 365.5 393 Z " /><path fill="rgb(246,244,251)" stroke="rgb(246,244,251)" stroke-width="1" opacity="1" d="M 364.5 395 L 367 395.5 L 364.5 396 L 364.5 395 Z " /><path fill="rgb(246,244,251)" stroke="rgb(246,244,251)" stroke-width="1" opacity="1" d="M 629.5 395 L 632 395.5 L 629.5 396 L 629.5 395 Z " /><path fill="rgb(246,244,251)" stroke="rgb(246,244,251)" stroke-width="1" opacity="1" d="M 699.5 395 Q 702.5 394.1 701 398.5 L 700 398.5 L 699.5 395 Z " /><path fill="rgb(246,244,251)" stroke="rgb(246,244,251)" stroke-width="1" opacity="1" d="M 359.5 396 L 362 396.5 L 357.5 398 L 357.5 397 L 359.5 396 Z " /><path fill="rgb(246,244,251)" stroke="rgb(246,244,251)" stroke-width="1" opacity="1" d="M 389.5 396 L 391 396.5 L 390.5 399 L 388 397.5 L 389.5 396 Z " /><path fill="rgb(246,244,251)" stroke="rgb(246,244,251)" stroke-width="1" opacity="1" d="M 620 396 L 622 396.5 L 620.5 399 L 620 396 Z " /><path fill="rgb(246,244,251)" stroke="rgb(246,244,251)" stroke-width="1" opacity="1" d="M 657.5 396 L 660 396.5 L 658.5 400 L 656 399 L 657.5 396 Z " /><path fill="rgb(246,244,251)" stroke="rgb(246,244,251)" stroke-width="1" opacity="1" d="M 352.5 398 L 353 399.5 L 349.5 402 L 352.5 398 Z " /><path fill="rgb(246,244,251)" stroke="rgb(246,244,251)" stroke-width="1" opacity="1" d="M 392.5 398 L 397 401.5 L 395.5 401 L 392 400 L 392.5 398 Z " /><path fill="rgb(246,244,251)" stroke="rgb(246,244,251)" stroke-width="1" opacity="1" d="M 739.5 398 L 740 400.5 L 739 400.5 L 739.5 398 Z " /><path fill="rgb(246,244,251)" stroke="rgb(246,244,251)" stroke-width="1" opacity="1" d="M 399.5 400 L 400 401.5 L 399 402.5 L 400.5 405 Q 396.3 403.2 399 401.5 L 399.5 400 Z " /><path fill="rgb(246,244,251)" stroke="rgb(246,244,251)" stroke-width="1" opacity="1" d="M 612.5 400 L 614 402.5 L 612 401.5 L 612.5 400 Z " /><path fill="rgb(246,244,251)" stroke="rgb(246,244,251)" stroke-width="1" opacity="1" d="M 663.5 400 L 666 400.5 L 666.5 402 L 667.5 400 L 668 401.5 L 666.5 405 L 665.5 402 L 663.5 403 Q 660.5 401.5 663.5 400 Z " /><path fill="rgb(246,244,251)" stroke="rgb(246,244,251)" stroke-width="1" opacity="1" d="M 701.5 400 L 702 422 L 700 421.5 L 701 420.5 L 701.5 400 Z " /><path fill="rgb(246,244,251)" stroke="rgb(246,244,251)" stroke-width="1" opacity="1" d="M 347.5 402 L 346.5 404 L 337.5 412 L 336.5 410 L 337.5 411 L 344 404.5 Q 343.2 401.9 346.5 403 L 347.5 402 Z " /><path fill="rgb(246,244,251)" stroke="rgb(246,244,251)" stroke-width="1" opacity="1" d="M 606.5 403 L 608.5 406 L 611 404.5 Q 608.5 409.5 606 404.5 L 606.5 403 Z " /><path fill="rgb(246,244,251)" stroke="rgb(246,244,251)" stroke-width="1" opacity="1" d="M 739.5 403 L 740 455.5 L 739 455.5 L 739.5 403 Z " /><path fill="rgb(246,244,251)" stroke="rgb(246,244,251)" stroke-width="1" opacity="1" d="M 403.5 406 L 405.5 409 L 403.5 406 Z " /><path fill="rgb(246,244,251)" stroke="rgb(246,244,251)" stroke-width="1" opacity="1" d="M 605.5 406 L 604.5 408 L 605.5 406 Z " /><path fill="rgb(246,244,251)" stroke="rgb(246,244,251)" stroke-width="1" opacity="1" d="M 673.5 408 L 676 411.5 L 675.5 414 L 672 409.5 L 673.5 408 Z " /><path fill="rgb(246,244,251)" stroke="rgb(246,244,251)" stroke-width="1" opacity="1" d="M 407.5 410 Q 412 411.5 412.5 417 L 414 416.5 L 412.5 419 L 407.5 410 Z " /><path fill="rgb(246,244,251)" stroke="rgb(246,244,251)" stroke-width="1" opacity="1" d="M 604.5 410 L 603.5 412 L 604.5 410 Z " /><path fill="rgb(246,244,251)" stroke="rgb(246,244,251)" stroke-width="1" opacity="1" d="M 332.5 413 L 337 413.5 L 333.5 415 L 332.5 413 Z " /><path fill="rgb(246,244,251)" stroke="rgb(246,244,251)" stroke-width="1" opacity="1" d="M 601.5 413 L 601 414.5 L 600.5 416 L 600 414.5 L 601.5 413 Z " /><path fill="rgb(246,244,251)" stroke="rgb(246,244,251)" stroke-width="1" opacity="1" d="M 676.5 415 L 677.5 417 L 676.5 415 Z " /><path fill="rgb(246,244,251)" stroke="rgb(246,244,251)" stroke-width="1" opacity="1" d="M 679.5 416 L 680 417.5 L 680 419.5 L 679.5 421 L 678 418.5 L 679.5 416 Z " /><path fill="rgb(246,244,251)" stroke="rgb(246,244,251)" stroke-width="1" opacity="1" d="M 332.5 417 Q 335.8 418.8 332 420.5 L 331.5 423 L 330 420 L 333 418.5 L 332.5 417 Z " /><path fill="rgb(246,244,251)" stroke="rgb(246,244,251)" stroke-width="1" opacity="1" d="M 452.5 417 L 455 417.5 L 452.5 418 L 452.5 417 Z " /><path fill="rgb(246,244,251)" stroke="rgb(246,244,251)" stroke-width="1" opacity="1" d="M 597.5 417 L 600 417.5 L 598.5 420 L 597 419.5 L 598 421.5 L 596 420.5 L 597.5 417 Z " /><path fill="rgb(246,244,251)" stroke="rgb(246,244,251)" stroke-width="1" opacity="1" d="M 413.5 420 L 416 420.5 Q 416.8 422.8 414.5 422 L 413.5 420 Z " /><path fill="rgb(246,244,251)" stroke="rgb(246,244,251)" stroke-width="1" opacity="1" d="M 434.5 421 L 444 421.5 L 434.5 422 L 434.5 421 Z " /><path fill="rgb(246,244,251)" stroke="rgb(246,244,251)" stroke-width="1" opacity="1" d="M 455.5 421 L 498 421.5 L 455.5 422 L 455.5 421 Z " /><path fill="rgb(246,244,251)" stroke="rgb(246,244,251)" stroke-width="1" opacity="1" d="M 328.5 425 L 330 429 Q 327.3 430.1 328 427.5 L 328.5 425 Z " /><path fill="rgb(246,244,251)" stroke="rgb(246,244,251)" stroke-width="1" opacity="1" d="M 328.5 430 L 329 432.5 L 328 432.5 L 328.5 430 Z " /><path fill="rgb(246,244,251)" stroke="rgb(246,244,251)" stroke-width="1" opacity="1" d="M 327.5 435 L 328 443.5 L 327 443.5 L 327.5 435 Z " /><path fill="rgb(246,244,251)" stroke="rgb(246,244,251)" stroke-width="1" opacity="1" d="M 328.5 447 L 329 449.5 L 328 449.5 L 328.5 447 Z " /><path fill="rgb(246,244,251)" stroke="rgb(246,244,251)" stroke-width="1" opacity="1" d="M 328.5 451 L 330 453.5 L 329 453.5 L 328.5 451 Z " /><path fill="rgb(246,244,251)" stroke="rgb(246,244,251)" stroke-width="1" opacity="1" d="M 414.5 459 L 598 459.5 L 414.5 460 L 413.5 461 L 414.5 459 Z " /><path fill="rgb(246,244,251)" stroke="rgb(246,244,251)" stroke-width="1" opacity="1" d="M 680.5 459 L 739 459.5 L 713.5 461 L 712.5 460 L 702 460 Q 703.1 462.7 700.5 462 L 697.5 460 L 681.5 460 L 678.5 462 L 680.5 459 Z " /><path fill="rgb(246,244,251)" stroke="rgb(246,244,251)" stroke-width="1" opacity="1" d="M 332.5 460 L 335 463.5 L 332.5 464 L 332 461.5 L 332.5 460 Z " /><path fill="rgb(246,244,251)" stroke="rgb(246,244,251)" stroke-width="1" opacity="1" d="M 415.5 461 L 592 461.5 L 415.5 462 L 414.5 463 L 415.5 461 Z " /><path fill="rgb(246,244,251)" stroke="rgb(246,244,251)" stroke-width="1" opacity="1" d="M 596.5 461 L 599 461.5 L 597.5 464 L 596.5 461 Z " /><path fill="rgb(246,244,251)" stroke="rgb(246,244,251)" stroke-width="1" opacity="1" d="M 412.5 462 L 411.5 464 L 412.5 462 Z " /><path fill="rgb(246,244,251)" stroke="rgb(246,244,251)" stroke-width="1" opacity="1" d="M 425.5 463 L 429 463.5 L 425.5 464 L 425.5 463 Z " /><path fill="rgb(246,244,251)" stroke="rgb(246,244,251)" stroke-width="1" opacity="1" d="M 441.5 463 L 445 463.5 L 441.5 464 L 441.5 463 Z " /><path fill="rgb(246,244,251)" stroke="rgb(246,244,251)" stroke-width="1" opacity="1" d="M 529.5 463 L 534 463.5 L 529.5 464 L 529.5 463 Z " /><path fill="rgb(246,244,251)" stroke="rgb(246,244,251)" stroke-width="1" opacity="1" d="M 677 463 L 679 463.5 L 679 465.5 Q 679.8 467.8 677.5 467 Q 675.8 470.8 674 467.5 L 677 466.5 L 677 463 Z " /><path fill="rgb(246,244,251)" stroke="rgb(246,244,251)" stroke-width="1" opacity="1" d="M 333.5 465 L 334 467 L 332 466.5 L 333.5 465 Z " /><path fill="rgb(246,244,251)" stroke="rgb(246,244,251)" stroke-width="1" opacity="1" d="M 335.5 465 L 345.5 476 L 348 477.5 L 346.5 477 L 342 475.5 L 342.5 474 L 340.5 475 L 341 473.5 L 337.5 469 L 336 469.5 L 336 467.5 L 335.5 465 Z " /><path fill="rgb(246,244,251)" stroke="rgb(246,244,251)" stroke-width="1" opacity="1" d="M 410.5 465 L 412 465.5 L 410 466.5 L 410.5 468 L 408 469.5 L 407.5 472 L 406 471.5 L 404.5 474 L 403 474.5 L 403.5 476 Q 402 473.5 400.5 477 L 399 477.5 L 399.5 479 Q 396.5 477.5 399.5 476 L 409 467.5 L 410.5 465 Z " /><path fill="rgb(246,244,251)" stroke="rgb(246,244,251)" stroke-width="1" opacity="1" d="M 601.5 467 L 605 469.5 L 603 470 Q 604.1 467.3 601.5 468 L 600 468.5 L 601.5 467 Z " /><path fill="rgb(246,244,251)" stroke="rgb(246,244,251)" stroke-width="1" opacity="1" d="M 674.5 470 L 673.5 472 L 674.5 470 Z " /><path fill="rgb(246,244,251)" stroke="rgb(246,244,251)" stroke-width="1" opacity="1" d="M 606.5 472 L 609 475.5 L 608 475.5 L 606.5 472 Z " /><path fill="rgb(246,244,251)" stroke="rgb(246,244,251)" stroke-width="1" opacity="1" d="M 670.5 472 Q 673.3 473.3 671 474.5 Q 671.8 476.8 669.5 476 L 669 473.5 L 670.5 472 Z " /><path fill="rgb(246,244,251)" stroke="rgb(246,244,251)" stroke-width="1" opacity="1" d="M 610.5 475 L 615 478.5 L 613.5 478 L 610.5 475 Z " /><path fill="rgb(246,244,251)" stroke="rgb(246,244,251)" stroke-width="1" opacity="1" d="M 666.5 475 L 667.5 477 Q 666.3 474.8 665 477.5 L 665.5 479 Q 662 477 666.5 475 Z " /><path fill="rgb(246,244,251)" stroke="rgb(246,244,251)" stroke-width="1" opacity="1" d="M 349.5 478 L 355 481.5 L 352.5 482 L 349.5 478 Z " /><path fill="rgb(246,244,251)" stroke="rgb(246,244,251)" stroke-width="1" opacity="1" d="M 396.5 478 L 397.5 480 L 395 479.5 L 396.5 478 Z " /><path fill="rgb(246,244,251)" stroke="rgb(246,244,251)" stroke-width="1" opacity="1" d="M 662.5 478 L 661.5 480 L 660 479.5 L 662.5 478 Z " /><path fill="rgb(246,244,251)" stroke="rgb(246,244,251)" stroke-width="1" opacity="1" d="M 616.5 479 L 621 481.5 L 619.5 482 L 616.5 479 Z " /><path fill="rgb(246,244,251)" stroke="rgb(246,244,251)" stroke-width="1" opacity="1" d="M 390.5 481 Q 392.8 480.3 392 482.5 L 389.5 483 L 388 482.5 L 390.5 481 Z " /><path fill="rgb(246,244,251)" stroke="rgb(246,244,251)" stroke-width="1" opacity="1" d="M 393.5 482 L 394 484.5 L 393 484.5 L 393.5 482 Z " /><path fill="rgb(246,244,251)" stroke="rgb(246,244,251)" stroke-width="1" opacity="1" d="M 359.5 483 L 366 484.5 L 361.5 485 L 359.5 483 Z " /><path fill="rgb(246,244,251)" stroke="rgb(246,244,251)" stroke-width="1" opacity="1" d="M 380.5 484 L 384 484.5 L 380.5 485 L 380.5 484 Z " /><path fill="rgb(246,244,251)" stroke="rgb(246,244,251)" stroke-width="1" opacity="1" d="M 368.5 485 Q 378.1 483.9 384 486.5 L 379.5 487 L 378.5 486 L 368.5 486 L 368.5 485 Z " /><path fill="rgb(246,244,251)" stroke="rgb(246,244,251)" stroke-width="1" opacity="1" d="M 635.5 485 L 641 485.5 L 635.5 486 L 635.5 485 Z " /><path fill="rgb(246,244,251)" stroke="rgb(246,244,251)" stroke-width="1" opacity="1" d="M 628.5 486 Q 633.9 485.1 636 487.5 L 634.5 488 Q 633.3 485.8 628.5 487 L 628.5 486 Z " /><path fill="rgb(246,244,251)" stroke="rgb(246,244,251)" stroke-width="1" opacity="1" d="M 366.5 487 L 370 487.5 L 366.5 488 L 366.5 487 Z " /><path fill="rgb(253,253,253)" stroke="rgb(253,253,253)" stroke-width="1" opacity="0.9333333333333333" d="M 0.5 0 L 1 767.5 L 0 767.5 L 0.5 0 Z " /><path fill="rgb(253,252,253)" stroke="rgb(253,252,253)" stroke-width="1" opacity="0.996078431372549" d="M 2.5 0 L 3 767.5 L 2 767.5 L 2.5 0 Z " /><path fill="rgb(253,252,253)" stroke="rgb(253,252,253)" stroke-width="1" opacity="0.996078431372549" d="M 1021.5 0 L 1022 767.5 L 1021 767.5 L 1021.5 0 Z " /><path fill="rgb(253,252,253)" stroke="rgb(253,252,253)" stroke-width="1" opacity="0.996078431372549" d="M 366 276 Q 369.7 274.8 368 280 L 364.5 281 L 364.5 280 L 366 280 L 366 276 Z " /><path fill="rgb(253,252,253)" stroke="rgb(253,252,253)" stroke-width="1" opacity="0.996078431372549" d="M 373.5 279 L 437 279.5 L 412 280.5 L 418 281.5 L 411.5 282 L 407.5 281 L 403.5 282 L 402.5 281 L 391.5 281 L 390.5 282 L 368.5 282 L 367.5 283 L 367 281 L 374 280.5 L 373.5 279 Z " /><path fill="rgb(253,252,253)" stroke="rgb(253,252,253)" stroke-width="1" opacity="0.996078431372549" d="M 513 279 L 517 280.5 L 514.5 281 Q 511.9 281.7 513 279 Z " /><path fill="rgb(253,252,253)" stroke="rgb(253,252,253)" stroke-width="1" opacity="0.996078431372549" d="M 468.5 280 L 476.5 281 L 479.5 280 L 480.5 281 L 489.5 281 L 491.5 280 L 495.5 282 L 497.5 282 L 506 283 L 505.5 285 L 497.5 283 L 468.5 282 L 467.5 283 L 437.5 283 L 437.5 282 L 466.5 282 L 468.5 280 Z " /><path fill="rgb(253,252,253)" stroke="rgb(253,252,253)" stroke-width="1" opacity="0.996078431372549" d="M 425.5 281 L 432 281.5 L 425.5 282 L 425.5 281 Z " /><path fill="rgb(253,252,253)" stroke="rgb(253,252,253)" stroke-width="1" opacity="0.996078431372549" d="M 362 282 L 364 282 L 364 284 Q 366.7 282.9 366 285.5 L 367 288.5 L 366 290.5 L 366 317.5 L 367 320 Q 370.9 322.4 380.5 321 L 381.5 320 L 400.5 320 L 402.5 321 L 403.5 320 L 416.5 320 L 418.5 321 L 419.5 320 L 432.5 320 L 434.5 321 L 435.5 320 L 463.5 320 L 463.5 321 L 462 321.5 L 487.5 323 L 487.5 321 Q 491.3 320 490 323 L 493.5 323 L 493.5 322 L 492 321.5 L 493.5 321 L 504.5 323 L 511 326.5 L 507.5 327 L 507.5 325 L 493.5 325 L 490 327.5 Q 492.2 328.8 489.5 330 L 486 330 L 485.5 326 L 438.5 326 L 438 323.5 L 436 324.5 Q 436.8 326.8 434.5 326 L 432.5 325 L 431.5 326 L 422 326 Q 423 323 420 324 Q 421.1 326.7 418.5 326 L 416.5 325 L 415.5 326 L 406 326 Q 407 323 404 324 Q 405.1 326.7 402.5 326 L 400.5 325 L 394 326 L 393 321 L 388 322 L 388 326 L 379.5 326 L 378.5 327 L 369.5 327 Q 366 325.5 366.5 320 L 365 320.5 L 364.5 288 L 364 290 L 362 289.5 L 362 282 Z M 495 323 L 495 324 L 500 324 L 495 323 Z " /><path fill="rgb(253,252,253)" stroke="rgb(253,252,253)" stroke-width="1" opacity="0.996078431372549" d="M 518 282 Q 523.3 280.8 522.5 284 L 534 284 L 534 287.5 L 532.5 287 L 529 288.5 L 531.5 290 L 534.5 289 L 537.5 293 L 535.5 292 L 536.5 294 L 539.5 293 L 543 295.5 Q 543.8 297.8 541.5 297 L 539.5 295 L 532.5 293 L 529.5 290 L 525 289.5 L 528 288.5 L 522.5 288 L 520.5 288 L 512 286 Q 510.9 283.3 513.5 284 L 515.5 284 L 517.5 285 L 518 282 Z " /><path fill="rgb(253,252,253)" stroke="rgb(253,252,253)" stroke-width="1" opacity="0.996078431372549" d="M 510.5 284 L 511 286 L 509 285.5 L 510.5 284 Z " /><path fill="rgb(253,252,253)" stroke="rgb(253,252,253)" stroke-width="1" opacity="0.996078431372549" d="M 540 286 Q 543.8 285 545 287.5 L 540 288 L 540 286 Z " /><path fill="rgb(253,252,253)" stroke="rgb(253,252,253)" stroke-width="1" opacity="0.996078431372549" d="M 360.5 290 L 362 291.5 L 362 324 L 360 323.5 L 360 315.5 L 359 314.5 L 359 295.5 L 360.5 290 Z " /><path fill="rgb(253,252,253)" stroke="rgb(253,252,253)" stroke-width="1" opacity="0.996078431372549" d="M 545.5 296 L 547.5 297 L 549.5 297 L 553.5 296 L 554 297.5 L 553 299.5 L 555.5 303 L 564 302 Q 562.8 305.7 568 304 L 568 311 L 571.5 311 L 573 314 Q 575.7 312.9 575 315.5 L 572 317 Q 573 313.2 570.5 312 L 569 312.5 L 569.5 314 L 567 313 L 566.5 311 L 565.5 312 L 562.5 309 L 559 306.5 L 561 305.5 L 559.5 304 L 556.5 305 L 546 298.5 L 546.5 297 L 544.5 298 L 545.5 296 Z " /><path fill="rgb(253,252,253)" stroke="rgb(253,252,253)" stroke-width="1" opacity="0.996078431372549" d="M 576.5 317 L 577 319 L 580 319.5 L 576 320 L 576.5 317 Z " /><path fill="rgb(253,252,253)" stroke="rgb(253,252,253)" stroke-width="1" opacity="0.996078431372549" d="M 588.5 318 L 592 320 L 592 324 Q 594.7 322.9 594 325.5 L 592.5 329 L 588.5 327 L 586 325.5 L 588 324.5 L 585.5 324 L 584 324.5 L 583.5 323 L 582 323.5 L 588 319.5 L 588.5 318 Z " /><path fill="rgb(253,252,253)" stroke="rgb(253,252,253)" stroke-width="1" opacity="0.996078431372549" d="M 604.5 326 Q 609.3 324.7 608 328 L 600.5 332 L 596 332 L 597 329.5 L 595.5 329 L 594 329.5 L 594.5 327 L 596.5 327 L 602.5 328 L 604.5 326 Z " /><path fill="rgb(253,252,253)" stroke="rgb(253,252,253)" stroke-width="1" opacity="0.996078431372549" d="M 513.5 327 L 521 329.5 Q 519.3 332.8 517.5 329 L 514.5 330 L 510 328.5 L 513.5 327 Z " /><path fill="rgb(253,252,253)" stroke="rgb(253,252,253)" stroke-width="1" opacity="0.996078431372549" d="M 524.5 331 L 529 334.5 L 528 335.5 L 528 343 Q 532.1 344.7 531 340.5 Q 532.2 337.8 533.5 340 Q 536.1 340.8 535 337.5 L 538.5 340 L 541 341.5 L 540 344 L 284 344.5 L 284 346.5 L 285 348.5 L 285 379.5 L 284 382.5 L 286.5 383 L 288.5 382 L 440.5 382 L 440.5 383 L 371 383.5 L 378 384 L 378 388 L 380 388 L 380 392 L 381.5 392 L 383.5 393 L 388 392 Q 386.2 397.2 393.5 395 L 396 396.5 L 396 395 L 400 395 L 400 399 L 401.5 399 L 404 398 Q 402.8 401.7 408 400 Q 406.3 394.8 410 396 L 410 400 Q 407 399 408 402 L 410 402 L 410 407 L 411.5 407 L 414 406 Q 413 409 416 408 L 416 412 L 419.5 412 L 421.5 414 L 447 414 Q 445.2 418.9 451.5 417 L 454.5 418 Q 456 415.5 461.5 417 L 466 418 L 465.5 420 L 448 420 L 447.5 418 L 435.5 418 L 435.5 416 L 417.5 416 Q 418.1 418.7 415 418 L 415 420.5 L 413 419.5 L 414 416 Q 410.7 417.3 412 412.5 Q 409.7 414.2 407.5 410 Q 405.3 410.8 406 408.5 L 395.5 399 L 393 399 L 392.5 396 L 391.5 399 L 390.5 396 L 386.5 397 L 381.5 394 L 378.5 395 L 378.5 394 L 381 393.5 L 376.5 392 L 375.5 395 Q 363 393.5 356.5 398 L 355.5 396 L 353.5 399 L 352.5 398 L 348.5 402 L 344.5 403 L 342 399 L 345.5 400 L 346 396 L 350 396 Q 348.8 393 352.5 394 L 356 393 L 356 388 Q 350 390 352 384 L 345.5 384 L 344.5 383 L 289.5 383 L 286 385 L 285.5 383 Q 284.3 385.3 283 382.5 L 280 377.5 L 280 374 L 283 373.5 L 283 353.5 L 282 353.5 Q 282.8 357.3 280.5 358 Q 278 352.5 279 343.5 L 280 340 L 282 340 Q 280.7 344.1 284 343 Q 282.7 338.9 286 340 L 286.5 343 L 288.5 339 L 299.5 339 L 301 340.5 Q 300 344.3 303 343 L 304.5 339 Q 315.2 337.3 321.5 340 L 323.5 339 L 325.5 340 L 326.5 339 L 334.5 339 L 337.5 340 L 339.5 339 L 341.5 340 L 342.5 339 L 350.5 339 L 353.5 340 L 355.5 339 Q 357.5 343 359.5 339 L 367.5 340 L 368.5 339 L 378.5 339 L 383.5 340 L 384.5 339 L 394.5 339 L 399.5 340 L 400.5 339 L 410.5 339 L 411.5 340 L 424.5 340 Q 426.6 343.9 432 343 Q 430.7 339.7 435.5 341 Q 436.7 337.8 442.5 339 Q 443.8 341.3 448.5 340 L 450.5 339 L 451.5 340 L 467.5 341 L 468.5 340 L 479.5 340 L 483.5 341 L 484.5 340 L 495.5 340 L 499.5 341 L 500.5 340 L 526 340 Q 527.8 335.1 521.5 337 L 520 335.5 L 524.5 331 Z M 360 391 L 357 393 L 358 395 L 363 395 L 363 393 L 364 391 L 362 392 L 360 391 Z M 365 392 L 366 394 L 370 394 L 365 392 Z M 373 392 L 373 393 L 375 393 L 373 392 Z M 413 411 L 415 416 L 416 413 L 413 411 Z " /><path fill="rgb(253,252,253)" stroke="rgb(253,252,253)" stroke-width="1" opacity="0.996078431372549" d="M 604.5 331 L 610 332 Q 611.3 335.3 606.5 334 L 606.5 335 Q 611 334 612 336.5 L 609.5 338 L 609.5 336 L 607.5 337 L 604 336 L 605 333.5 L 604.5 331 Z " /><path fill="rgb(253,252,253)" stroke="rgb(253,252,253)" stroke-width="1" opacity="0.996078431372549" d="M 530.5 336 Q 532.8 335.3 532 337.5 L 530.5 336 Z " /><path fill="rgb(253,252,253)" stroke="rgb(253,252,253)" stroke-width="1" opacity="0.996078431372549" d="M 613.5 336 L 614 338 Q 620.5 336.8 623 340.5 L 621.5 341 L 616.5 340 L 613 337.5 L 613.5 336 Z " /><path fill="rgb(253,252,253)" stroke="rgb(253,252,253)" stroke-width="1" opacity="0.996078431372549" d="M 626 340 L 632.5 341 L 637.5 340 L 639.5 341 L 644 340 L 644.5 343 L 690.5 343 L 690.5 344 L 684.5 345 L 683.5 344 L 641.5 344 L 638.5 342 L 638.5 344 L 637.5 341 Q 632.1 339.1 633 342.5 L 631.5 342 Q 624.6 344 626 340 Z " /><path fill="rgb(253,252,253)" stroke="rgb(253,252,253)" stroke-width="1" opacity="0.996078431372549" d="M 698 342 L 703.5 342 L 704 343.5 L 703 346 L 708 346 Q 706.9 348.7 709.5 348 L 709.5 349 L 701.5 348 L 700 346.5 L 700.5 345 L 698 343.5 L 698 342 Z " /><path fill="rgb(253,252,253)" stroke="rgb(253,252,253)" stroke-width="1" opacity="0.996078431372549" d="M 714.5 350 L 719.5 350 Q 720.6 352.8 724 352 Q 725.3 355.3 720.5 354 Q 719 350.5 717.5 353 Q 709.9 354.5 711 351 L 714.5 350 Z M 716 351 L 716 352 L 718 352 L 716 351 Z " /><path fill="rgb(253,252,253)" stroke="rgb(253,252,253)" stroke-width="1" opacity="0.996078431372549" d="M 716.5 354 L 717.5 356 Q 714.7 356.7 716.5 354 Z " /><path fill="rgb(253,252,253)" stroke="rgb(253,252,253)" stroke-width="1" opacity="0.996078431372549" d="M 720.5 357 L 722 359.5 L 720 358.5 L 720.5 357 Z " /><path fill="rgb(253,252,253)" stroke="rgb(253,252,253)" stroke-width="1" opacity="0.996078431372549" d="M 723.5 361 L 726.5 363 L 726.5 364 L 723.5 361 Z " /><path fill="rgb(253,252,253)" stroke="rgb(253,252,253)" stroke-width="1" opacity="0.996078431372549" d="M 732 368 Q 737.2 366.3 736 370 Q 733.3 368.9 734 371.5 Q 732.5 374.5 731 371.5 L 732 368 Z " /><path fill="rgb(253,252,253)" stroke="rgb(253,252,253)" stroke-width="1" opacity="0.996078431372549" d="M 734.5 375 L 733.5 377 L 734.5 375 Z " /><path fill="rgb(253,252,253)" stroke="rgb(253,252,253)" stroke-width="1" opacity="0.996078431372549" d="M 736.5 381 L 737 383.5 L 736 383.5 L 736.5 381 Z " /><path fill="rgb(253,252,253)" stroke="rgb(253,252,253)" stroke-width="1" opacity="0.996078431372549" d="M 460 382 L 464 382.5 L 460 384 L 460 382 Z " /><path fill="rgb(253,252,253)" stroke="rgb(253,252,253)" stroke-width="1" opacity="0.996078431372549" d="M 480 382 L 504 382.5 Q 501.3 385.3 494.5 384 Q 493.2 381.7 488.5 383 L 487.5 384 L 480 384 L 480 382 Z " /><path fill="rgb(253,252,253)" stroke="rgb(253,252,253)" stroke-width="1" opacity="0.996078431372549" d="M 521.5 382 L 609.5 382 L 611.5 384 L 618 384.5 L 608.5 385 L 607.5 384 L 595.5 384 L 594.5 383 L 564.5 383 L 564.5 384 Q 571.4 382 570 386 L 534.5 386 Q 535.3 389.3 530 388 Q 531.3 383.9 528 385 Q 529.3 389.1 526 388 L 526 384 L 527.5 384 L 527.5 383 L 521.5 383 L 521.5 382 Z " /><path fill="rgb(253,252,253)" stroke="rgb(253,252,253)" stroke-width="1" opacity="0.996078431372549" d="M 621.5 382 L 624 382.5 L 621.5 383 L 621.5 382 Z " /><path fill="rgb(253,252,253)" stroke="rgb(253,252,253)" stroke-width="1" opacity="0.996078431372549" d="M 627.5 382 L 666 382.5 L 662 383.5 L 666 384 Q 665 387 668 386 L 668 390 L 664.5 390 Q 665.3 386.8 660 388 L 660 384.5 Q 658.8 381.8 657.5 384 L 656 384 L 656 388 L 648 388 L 647.5 383 L 627.5 383 L 627.5 382 Z " /><path fill="rgb(253,252,253)" stroke="rgb(253,252,253)" stroke-width="1" opacity="0.996078431372549" d="M 668.5 382 L 679 382.5 L 668.5 383 L 668.5 382 Z " /><path fill="rgb(253,252,253)" stroke="rgb(253,252,253)" stroke-width="1" opacity="0.996078431372549" d="M 681.5 383 L 686 383.5 L 681.5 384 L 681.5 383 Z " /><path fill="rgb(253,252,253)" stroke="rgb(253,252,253)" stroke-width="1" opacity="0.996078431372549" d="M 738.5 383 Q 742 385 737.5 387 L 737 385 L 739 384.5 L 738.5 383 Z " /><path fill="rgb(253,252,253)" stroke="rgb(253,252,253)" stroke-width="1" opacity="0.996078431372549" d="M 396.5 384 L 399 384.5 L 396.5 385 L 396.5 384 Z " /><path fill="rgb(253,252,253)" stroke="rgb(253,252,253)" stroke-width="1" opacity="0.996078431372549" d="M 624 384 L 643.5 384 L 644 388 L 636.5 388 L 635.5 390 L 624 390 L 624 384 Z " /><path fill="rgb(253,252,253)" stroke="rgb(253,252,253)" stroke-width="1" opacity="0.996078431372549" d="M 396 386 Q 401.2 384.3 400 388 Q 394.8 389.7 396 386 Z " /><path fill="rgb(253,252,253)" stroke="rgb(253,252,253)" stroke-width="1" opacity="0.996078431372549" d="M 688.5 386 L 689 388 Q 693.1 386.7 692 390 L 688 392 L 688.5 386 Z " /><path fill="rgb(253,252,253)" stroke="rgb(253,252,253)" stroke-width="1" opacity="0.996078431372549" d="M 678 388 Q 681.7 386.8 680 392 Q 676.3 390.8 678 396 L 674 396 Q 673 393 676 394 L 676 390 Q 679 391 678 388 Z " /><path fill="rgb(253,252,253)" stroke="rgb(253,252,253)" stroke-width="1" opacity="0.996078431372549" d="M 694 388 Q 696.7 386.9 696 389.5 L 698.5 393 Q 696.3 392.3 697 394.5 L 696 394.5 Q 696.8 392.3 694.5 393 L 693 390.5 L 694 388 Z " /><path fill="rgb(253,252,253)" stroke="rgb(253,252,253)" stroke-width="1" opacity="0.996078431372549" d="M 740.5 389 L 742.5 393 L 746 392 L 746 453.5 L 744.5 458 L 741.5 453 L 740 453.5 L 740.5 445 L 741.5 449 L 742 439.5 L 741 439.5 L 740.5 441 L 740 429.5 L 741 429.5 L 741.5 433 L 742 423.5 L 741 423.5 L 740.5 425 L 740 413.5 L 741 413.5 L 741.5 417 L 742 407.5 L 741 407.5 L 740.5 409 L 739 401.5 L 742 400.5 Q 743.3 394.5 740 395.5 L 740.5 389 Z " /><path fill="rgb(253,252,253)" stroke="rgb(253,252,253)" stroke-width="1" opacity="0.996078431372549" d="M 614 390 L 620 391 L 620 394 L 614 394 L 614 390 Z " /><path fill="rgb(253,252,253)" stroke="rgb(253,252,253)" stroke-width="1" opacity="0.996078431372549" d="M 633.5 391 L 636 391.5 L 635.5 393 Q 640.3 392.3 642 394.5 L 639.5 395 L 637.5 394 L 636.5 395 L 633.5 391 Z " /><path fill="rgb(253,252,253)" stroke="rgb(253,252,253)" stroke-width="1" opacity="0.996078431372549" d="M 412 392 L 416 392 L 416 396 Q 422 394 420 400 L 416 400 L 416 396 Q 410 398 412 392 Z " /><path fill="rgb(253,252,253)" stroke="rgb(253,252,253)" stroke-width="1" opacity="0.996078431372549" d="M 656.5 392 L 657 395 L 662 395 L 662 397.5 L 661 398.5 L 662.5 401 L 657 397.5 L 660 398.5 Q 661.3 394.3 656.5 396 L 652.5 397 L 648 395.5 L 654.5 394 L 654.5 396 L 656 396 L 656.5 392 Z " /><path fill="rgb(253,252,253)" stroke="rgb(253,252,253)" stroke-width="1" opacity="0.996078431372549" d="M 625.5 395 L 629 395.5 L 624.5 397 L 625.5 395 Z " /><path fill="rgb(253,252,253)" stroke="rgb(253,252,253)" stroke-width="1" opacity="0.996078431372549" d="M 694 396 L 696 396.5 L 696 406.5 L 692.5 408 Q 691.4 405.3 688 406 Q 686.8 403 690.5 404 L 692 400 Q 695.7 401.2 694 396 Z " /><path fill="rgb(253,252,253)" stroke="rgb(253,252,253)" stroke-width="1" opacity="0.996078431372549" d="M 670 398 Q 672.7 396.9 672 399.5 L 673 404.5 L 672 404.5 L 671.5 403 L 670.5 406 L 667 404.5 L 668 400 Q 671 401 670 398 Z " /><path fill="rgb(253,252,253)" stroke="rgb(253,252,253)" stroke-width="1" opacity="0.996078431372549" d="M 613.5 399 Q 616.8 397.9 616 400.5 L 614 401.5 L 613.5 399 Z " /><path fill="rgb(253,252,253)" stroke="rgb(253,252,253)" stroke-width="1" opacity="0.996078431372549" d="M 674 400 Q 677.7 398.8 676 404 Q 672.3 405.2 674 400 Z " /><path fill="rgb(253,252,253)" stroke="rgb(253,252,253)" stroke-width="1" opacity="0.996078431372549" d="M 611.5 402 L 613 402.5 L 609.5 405 L 609 403 L 611.5 402 Z " /><path fill="rgb(253,252,253)" stroke="rgb(253,252,253)" stroke-width="1" opacity="0.996078431372549" d="M 343.5 404 L 340.5 408 L 341 406.5 Q 340.3 404.3 342.5 405 L 343.5 404 Z " /><path fill="rgb(253,252,253)" stroke="rgb(253,252,253)" stroke-width="1" opacity="0.996078431372549" d="M 600.5 407 L 605.5 408 L 607 407.5 L 603 413 Q 598.9 411.3 600 415.5 Q 598.8 418.3 597.5 416 Q 595.3 415.3 596 417.5 L 596 419.5 L 596.5 421 L 598 420.5 Q 596.5 423.5 595 420.5 L 594 416 L 599 415 L 600 410.5 L 599 408.5 L 600.5 407 Z " /><path fill="rgb(253,252,253)" stroke="rgb(253,252,253)" stroke-width="1" opacity="0.996078431372549" d="M 670.5 407 L 673 407.5 Q 670.9 410.8 670.5 407 Z " /><path fill="rgb(253,252,253)" stroke="rgb(253,252,253)" stroke-width="1" opacity="0.996078431372549" d="M 338.5 409 L 337.5 411 L 338.5 409 Z " /><path fill="rgb(253,252,253)" stroke="rgb(253,252,253)" stroke-width="1" opacity="0.996078431372549" d="M 330 410 L 334 411.5 L 334.5 414 L 335.5 411 Q 338.8 412.8 335 414.5 L 333.5 418 L 332.5 416 L 332 420 L 328 420 L 328 412 Q 331 413 330 410 Z " /><path fill="rgb(253,252,253)" stroke="rgb(253,252,253)" stroke-width="1" opacity="0.996078431372549" d="M 524 412 L 543.5 412 L 544 416 L 552.5 416 L 556 415 L 556.5 412 L 566 412 Q 568 418 562 416 L 562 421 L 589 420.5 L 569 420 L 568.5 418 L 567.5 420 L 567 416 Q 569.1 414.4 574.5 415 L 580 416 Q 578.3 410.8 582 412 Q 579.9 417.2 584.5 416 Q 585.7 413.8 590.5 415 L 592 418.5 L 591 421 L 588.5 422 L 498.5 422 L 498.5 420 L 489.5 421 L 488.5 420 L 478 420 Q 476.7 416.7 481.5 418 L 482.5 417 L 500 417 L 500.5 419 L 512 419 Q 510.7 415.7 515.5 417 L 524 415 L 524 412 Z M 541 418 L 541 420 L 509 421 L 556 421 L 556 420 L 545 420 Q 546 417 541 418 Z " /><path fill="rgb(253,252,253)" stroke="rgb(253,252,253)" stroke-width="1" opacity="0.996078431372549" d="M 676 412 Q 680.9 410.2 679 416.5 L 676 414.5 L 676 412 Z " /><path fill="rgb(253,252,253)" stroke="rgb(253,252,253)" stroke-width="1" opacity="0.996078431372549" d="M 697.5 417 L 699.5 420 Q 697.3 420.8 698 418.5 L 697 418.5 Q 697.7 421.1 695 420 Q 693.9 417.3 696.5 418 L 697.5 417 Z " /><path fill="rgb(253,252,253)" stroke="rgb(253,252,253)" stroke-width="1" opacity="0.996078431372549" d="M 680 418 L 687.5 418 L 688 420 L 681 420.5 L 700 421.5 L 680 422 L 680 418 Z " /><path fill="rgb(253,252,253)" stroke="rgb(253,252,253)" stroke-width="1" opacity="0.996078431372549" d="M 437.5 420 L 443 420.5 L 437.5 421 L 437.5 420 Z " /><path fill="rgb(253,252,253)" stroke="rgb(253,252,253)" stroke-width="1" opacity="0.996078431372549" d="M 327 421 L 329 421.5 L 327 422.5 L 327 421 Z " /><path fill="rgb(253,252,253)" stroke="rgb(253,252,253)" stroke-width="1" opacity="0.996078431372549" d="M 416.5 421 L 434 421.5 L 416.5 422 L 416.5 421 Z " /><path fill="rgb(253,252,253)" stroke="rgb(253,252,253)" stroke-width="1" opacity="0.996078431372549" d="M 444.5 421 L 455 421.5 L 444.5 422 L 444.5 421 Z " /><path fill="rgb(253,252,253)" stroke="rgb(253,252,253)" stroke-width="1" opacity="0.996078431372549" d="M 330.5 423 L 330 424.5 L 329.5 426 L 329 424.5 L 330.5 423 Z " /><path fill="rgb(253,252,253)" stroke="rgb(253,252,253)" stroke-width="1" opacity="0.996078431372549" d="M 327.5 425 L 329 429.5 Q 326 434.5 327 443.5 L 329 450.5 L 328 452.5 L 329.5 455 L 327 454.5 Q 328.1 450.3 324 452 L 324 447.5 L 323 446.5 L 323 433.5 L 324 428 Q 326.7 429.1 326 426.5 L 327.5 425 Z " /><path fill="rgb(253,252,253)" stroke="rgb(253,252,253)" stroke-width="1" opacity="0.996078431372549" d="M 329 456 Q 332 454.8 331 458.5 L 333 462.5 L 332.5 464 L 334 464.5 Q 330.3 466.3 333.5 468 L 334.5 466 L 336.5 469 L 334.5 468 Q 333.4 470.8 330 470 Q 331 467 328 468 L 328 465 L 330 464.5 L 328 464 L 327 457.5 L 328 457.5 Q 327.3 459.8 329.5 459 L 329 457.5 L 329 456 Z " /><path fill="rgb(253,252,253)" stroke="rgb(253,252,253)" stroke-width="1" opacity="0.996078431372549" d="M 414.5 460 L 457 460.5 L 415.5 461 L 413.5 462 L 414.5 460 Z " /><path fill="rgb(253,252,253)" stroke="rgb(253,252,253)" stroke-width="1" opacity="0.996078431372549" d="M 464.5 460 L 540 460.5 L 464.5 461 L 464.5 460 Z " /><path fill="rgb(253,252,253)" stroke="rgb(253,252,253)" stroke-width="1" opacity="0.996078431372549" d="M 552.5 460 L 578 460.5 L 552.5 461 L 552.5 460 Z " /><path fill="rgb(253,252,253)" stroke="rgb(253,252,253)" stroke-width="1" opacity="0.996078431372549" d="M 584.5 460 L 595.5 460 L 596 461.5 L 597.5 464 L 598.5 462 Q 601.4 463.6 600.5 469 L 602.5 468 L 602.5 470 L 605 471.5 L 603 471.5 L 602.5 473 L 602 470 Q 596.8 471.8 599 464.5 L 596.5 464 Q 594.3 463.3 595 465.5 L 593.5 465 L 591.5 464 L 570 464 L 569.5 466 L 552 466 L 552.5 463 L 591.5 463 L 592 461 L 584.5 461 L 584.5 460 Z " /><path fill="rgb(253,252,253)" stroke="rgb(253,252,253)" stroke-width="1" opacity="0.996078431372549" d="M 681.5 460 L 698 460.5 L 681.5 461 L 681.5 460 Z " /><path fill="rgb(253,252,253)" stroke="rgb(253,252,253)" stroke-width="1" opacity="0.996078431372549" d="M 702.5 460 L 717.5 461 L 718.5 460 L 738.5 460 L 738.5 461 L 736.5 462 L 731.5 461 L 731.5 464 L 735.5 465 L 738.5 464 L 742 466 L 744 470 L 740 472 Q 741.2 468.3 736 470 L 736 480 L 728 480 L 728 476 L 732 475.5 L 732 465 L 720.5 465 L 720 470 L 712 470 L 712 465 L 709.5 465 L 708 461 Q 704.7 459.9 706 464 L 702 464 Q 703 467 700 466 L 700 470 L 698 470 L 698 466 L 700 466 Q 698.9 463.3 701.5 464 L 703 461.5 L 702.5 460 Z M 722 461 L 722 464 L 728 464 L 728 461 L 722 461 Z " /><path fill="rgb(253,252,253)" stroke="rgb(253,252,253)" stroke-width="1" opacity="0.996078431372549" d="M 415.5 463 L 425 463.5 L 416 465.5 L 420 466 Q 422.2 471.6 416.5 470 L 415 470.5 L 413.5 466 L 412.5 468 L 410 466.5 L 412 465.5 L 411.5 464 L 415.5 463 Z " /><path fill="rgb(253,252,253)" stroke="rgb(253,252,253)" stroke-width="1" opacity="0.996078431372549" d="M 429.5 463 L 441 463.5 L 429.5 464 L 429.5 463 Z " /><path fill="rgb(253,252,253)" stroke="rgb(253,252,253)" stroke-width="1" opacity="0.996078431372549" d="M 445.5 463 L 457 463.5 L 445.5 464 L 445.5 463 Z " /><path fill="rgb(253,252,253)" stroke="rgb(253,252,253)" stroke-width="1" opacity="0.996078431372549" d="M 464.5 463 L 528.5 463 L 533.5 464 L 538.5 463 L 538.5 464 L 536.5 465 L 505.5 465 Q 504.2 462.8 499.5 464 L 498.5 465 L 469.5 465 L 464.5 464 L 464.5 463 Z " /><path fill="rgb(253,252,253)" stroke="rgb(253,252,253)" stroke-width="1" opacity="0.996078431372549" d="M 679 464 Q 682.7 462.8 681 468 Q 677.3 469.2 679 464 Z " /><path fill="rgb(253,252,253)" stroke="rgb(253,252,253)" stroke-width="1" opacity="0.996078431372549" d="M 684 464 Q 689.2 461.9 688 466.5 L 689.5 466 L 692 467.5 Q 690.7 471.7 695.5 470 L 699 471.5 L 698 474 L 694 475.5 L 696 476 L 696 478 L 692 480 L 692 478 Q 686.8 479.7 688 476 L 692 475.5 L 684 474 L 684 471 Q 689.6 472.9 688 468 Q 682 470 684 464 Z " /><path fill="rgb(253,252,253)" stroke="rgb(253,252,253)" stroke-width="1" opacity="0.996078431372549" d="M 409.5 468 L 414 471.5 L 412 472 Q 412.8 475.1 410 474.5 L 410 480 L 408.5 480 L 406.5 481 Q 405.3 478.8 404 481.5 L 402.5 484 Q 397 482.5 395.5 485 L 394 481.5 L 397.5 478 L 400 479.5 L 399 477.5 L 406 472.5 L 406.5 471 L 408 471.5 L 409.5 468 Z M 395 481 L 395 483 L 397 482 L 395 481 Z " /><path fill="rgb(253,252,253)" stroke="rgb(253,252,253)" stroke-width="1" opacity="0.996078431372549" d="M 337.5 470 L 341 472.5 L 340 474.5 L 341.5 474 L 343 474.5 L 342.5 476 Q 346.3 474.8 345 478.5 L 344 484 L 336 484 Q 338 478 332 480 L 332 472 L 334.5 473 L 336.5 472 L 338 472.5 L 337.5 470 Z " /><path fill="rgb(253,252,253)" stroke="rgb(253,252,253)" stroke-width="1" opacity="0.996078431372549" d="M 671.5 471 L 674.5 473 L 678 472 L 676 476 Q 681.2 474.3 680 478 L 676.5 478 Q 677.3 481.3 672 480 L 672 478 L 668 478 L 668 476.5 L 666 476.5 L 671 472.5 L 671.5 471 Z M 672 473 L 669 475 L 669 476 L 672 475 L 672 473 Z " /><path fill="rgb(253,252,253)" stroke="rgb(253,252,253)" stroke-width="1" opacity="0.996078431372549" d="M 700 472 Q 705.2 470.3 704 474 Q 698.8 475.7 700 472 Z " /><path fill="rgb(253,252,253)" stroke="rgb(253,252,253)" stroke-width="1" opacity="0.996078431372549" d="M 708 472 L 710 472.5 L 710 480 L 708 479.5 L 708 472 Z " /><path fill="rgb(253,252,253)" stroke="rgb(253,252,253)" stroke-width="1" opacity="0.996078431372549" d="M 609.5 476 L 613 478.5 L 610.5 477 L 609.5 476 Z " /><path fill="rgb(253,252,253)" stroke="rgb(253,252,253)" stroke-width="1" opacity="0.996078431372549" d="M 346 478 L 348.5 478 L 354 482.5 L 353.5 484 Q 355.8 484.8 355 482.5 L 356 482.5 L 356.5 484 L 358.5 484 L 364.5 486 L 367.5 485 L 375.5 487 L 379.5 485 L 378.5 489 L 374.5 488 L 373.5 489 L 365 489 L 364.5 487 L 361 488 Q 362.5 484.3 359.5 485 L 353.5 488 L 352 487.5 L 351.5 489 L 350 486.5 L 351 484 L 346 484 L 346 482 L 348 481.5 L 346 478 Z M 367 487 L 367 488 L 370 488 L 367 487 Z " /><path fill="rgb(253,252,253)" stroke="rgb(253,252,253)" stroke-width="1" opacity="0.996078431372549" d="M 614.5 479 L 617 480 L 617.5 482 L 619.5 482 L 622 482 L 622.5 484 L 628 484 L 628 486.5 L 626.5 488 L 614 488 L 614 486 L 620 486 L 620 484 L 613 484 L 613 480.5 L 614.5 479 Z " /><path fill="rgb(253,252,253)" stroke="rgb(253,252,253)" stroke-width="1" opacity="0.996078431372549" d="M 659.5 480 L 663 480.5 L 660 481.5 L 661 483.5 L 661 485.5 L 660.5 488 L 648.5 488 L 646.5 487 L 644.5 488 L 641 485.5 L 642.5 485 L 645.5 487 L 646.5 486 L 657.5 486 L 660 483.5 L 659.5 482 Q 658.4 484.8 655 484 Q 653.9 481.3 656.5 482 L 659.5 480 Z " /><path fill="rgb(253,252,253)" stroke="rgb(253,252,253)" stroke-width="1" opacity="0.996078431372549" d="M 389.5 483 L 393 484.5 L 390.5 485 L 387 486.5 L 387.5 488 L 383.5 486 L 382 485.5 L 389.5 483 Z " /><path fill="rgb(253,252,253)" stroke="rgb(253,252,253)" stroke-width="1" opacity="0.996078431372549" d="M 653.5 483 L 654 485 L 648 484.5 L 653.5 483 Z " /><path fill="rgb(253,252,253)" stroke="rgb(253,252,253)" stroke-width="1" opacity="0.996078431372549" d="M 692 484 L 694 484 Q 692.3 489.2 696 488 L 696 496 L 694 496 Q 695.7 501.2 692 500 Q 694 494 688 496 L 688 488 Q 694 490 692 484 Z " /><path fill="rgb(253,252,253)" stroke="rgb(253,252,253)" stroke-width="1" opacity="0.996078431372549" d="M 633.5 485 L 638.5 488 L 641.5 487 L 641.5 488 L 639 488.5 L 640 489.5 L 640 496 L 632 496 L 632 488.5 L 630.5 488 L 630.5 487 L 634 486.5 L 633.5 485 Z " /><path fill="rgb(253,252,253)" stroke="rgb(253,252,253)" stroke-width="1" opacity="0.996078431372549" d="M 396 486 Q 401.2 484.3 400 488 Q 394.8 489.7 396 486 Z " /><path fill="rgb(253,252,253)" stroke="rgb(253,252,253)" stroke-width="1" opacity="0.996078431372549" d="M 676 488 L 678 488 L 678 491.5 Q 681.3 490.7 680 496 L 678 496 Q 679.7 501.2 676 500 L 676 496 Q 670 498 672 492 Q 678 494 676 488 Z " /><path fill="rgb(253,253,253)" stroke="rgb(253,253,253)" stroke-width="1" opacity="1" d="M 1.5 0 L 2 767.5 L 1 767.5 L 1.5 0 Z " /><path fill="rgb(253,253,253)" stroke="rgb(253,253,253)" stroke-width="1" opacity="1" d="M 3 0 L 1021 0 L 1021 768 L 3 768 L 3 0 Z M 366 276 L 366 280 L 366 282 L 367 286 L 366 286 Q 368 280 362 282 L 362 290 L 364 290 L 365 288 L 365 321 L 367 320 Q 366 326 370 327 L 379 327 L 380 326 L 388 326 L 388 322 L 393 321 L 394 326 L 401 325 L 403 326 Q 405 327 404 324 Q 407 323 406 326 L 416 326 L 417 325 L 419 326 Q 421 327 420 324 Q 423 323 422 326 L 432 326 L 433 325 L 435 326 Q 437 327 436 325 L 438 324 L 439 326 L 486 326 L 486 330 L 490 330 Q 492 329 490 328 L 494 325 L 508 325 L 508 327 Q 511 326 510 329 L 515 330 L 517 329 L 521 332 L 524 331 L 520 336 L 522 337 Q 528 335 526 340 L 501 340 L 500 341 L 496 340 L 485 340 L 484 341 L 480 340 L 469 340 L 468 341 L 452 340 L 451 339 L 449 340 Q 444 341 443 339 Q 437 338 436 341 Q 431 340 432 343 Q 427 344 425 340 L 412 340 L 411 339 L 401 339 L 400 340 L 395 339 L 385 339 L 384 340 L 379 339 L 369 339 L 368 340 L 360 339 Q 358 343 356 339 L 354 340 L 351 339 L 343 339 L 342 340 L 340 339 L 338 340 L 335 339 L 327 339 L 326 340 L 324 339 L 322 340 Q 315 337 305 339 L 303 343 Q 300 344 301 341 L 300 339 L 289 339 L 287 343 L 286 340 Q 283 339 284 343 Q 281 344 282 340 L 280 340 L 279 344 Q 278 352 281 358 Q 283 357 282 354 L 283 354 L 283 374 L 280 374 L 280 378 L 283 383 L 287 385 L 289 384 L 316 384 L 317 383 L 345 383 L 346 384 L 352 384 Q 350 390 356 388 L 356 393 L 353 394 Q 349 393 350 396 L 346 396 L 346 400 L 347 401 Q 345 398 342 399 L 344 404 Q 343 406 342 404 L 340 409 L 337 410 L 337 412 L 336 411 L 335 413 L 333 410 L 330 410 Q 331 413 328 412 L 328 420 L 330 420 L 331 423 L 326 427 Q 327 429 324 428 L 323 434 L 323 447 L 324 448 L 324 452 Q 328 450 327 455 L 330 456 Q 327 458 328 464 L 330 465 L 328 465 L 328 468 Q 331 467 330 470 L 333 470 Q 335 469 333 468 L 337 470 L 338 470 L 337 472 L 335 473 L 332 472 L 332 480 Q 338 478 336 484 L 344 484 L 344 479 L 348 482 L 346 482 L 346 484 L 351 484 L 350 487 L 352 489 L 352 488 L 354 488 L 360 485 Q 363 484 361 488 L 365 487 L 365 489 L 374 489 L 375 488 L 379 489 L 378 488 L 385 487 L 387 487 L 391 485 L 395 480 L 397 481 L 395 484 L 396 485 Q 397 483 403 484 L 404 482 Q 405 479 407 481 L 409 480 L 410 480 L 410 475 Q 413 475 412 472 L 414 472 L 411 468 L 413 468 L 414 466 L 415 471 L 417 470 Q 422 472 420 466 L 416 466 L 422 464 L 457 464 L 457 463 L 416 463 L 415 464 L 412 464 Q 413 461 415 463 L 416 462 L 592 462 L 592 463 L 553 463 L 552 466 L 570 466 L 570 464 L 592 464 L 594 465 L 595 466 Q 594 463 597 464 L 599 464 L 599 470 L 603 469 L 602 471 L 603 473 L 605 472 L 605 470 L 606 473 Q 609 474 608 476 L 610 475 L 609 477 L 611 477 Q 612 480 614 479 L 613 481 L 613 484 L 620 484 L 620 486 L 614 486 L 614 488 L 627 488 L 628 487 L 631 488 L 632 489 L 632 496 L 640 496 L 640 490 L 636 487 L 644 485 L 654 485 L 659 483 L 659 485 L 658 486 L 644 486 L 645 488 L 647 487 L 649 488 L 661 488 L 661 486 L 661 484 L 660 482 L 663 481 L 662 480 L 666 477 L 669 478 Q 673 477 672 480 Q 677 481 677 478 L 680 478 Q 681 474 676 476 L 678 472 L 675 473 L 674 472 L 675 470 Q 672 469 673 472 L 672 472 L 677 466 L 681 468 L 681 464 L 680 464 L 678 465 L 681 461 L 700 461 L 701 462 L 703 461 L 703 463 L 703 464 L 706 464 Q 705 460 708 461 L 710 465 L 712 465 L 712 470 L 720 470 L 721 465 L 732 465 L 732 476 L 728 476 L 728 480 L 736 480 L 736 470 Q 741 468 740 472 L 744 470 L 742 466 L 739 464 L 736 465 L 732 464 L 731 462 L 736 461 L 738 461 Q 740 462 739 460 L 739 458 L 742 453 L 745 458 L 746 454 L 746 392 L 743 393 L 740 388 L 738 388 L 740 385 Q 739 382 738 384 L 734 378 L 735 376 L 733 375 L 734 372 Q 733 369 736 370 Q 737 367 733 368 L 731 371 L 730 370 L 730 368 L 728 364 L 727 366 L 728 367 L 726 365 L 727 363 Q 724 364 725 362 Q 724 359 723 361 L 721 357 L 719 358 L 716 354 L 718 353 L 716 352 L 716 351 Q 720 351 721 354 Q 725 355 724 352 Q 721 353 720 350 Q 715 349 714 351 L 709 348 L 711 352 L 710 351 Q 707 352 708 350 L 707 350 L 705 350 L 708 348 L 708 346 L 703 346 L 704 344 L 704 342 L 698 342 L 697 345 L 699 345 L 700 347 L 697 346 L 695 346 L 688 345 L 691 344 L 691 343 L 645 343 L 644 340 L 640 341 L 638 340 L 633 341 L 630 340 L 626 341 L 616 336 L 612 338 L 612 337 Q 611 334 607 335 L 607 334 Q 611 335 610 332 L 605 331 L 603 334 L 604 335 L 599 333 L 607 328 Q 609 329 608 326 Q 604 325 603 328 L 598 327 L 593 329 L 594 326 Q 595 323 592 324 L 592 320 L 589 318 L 586 322 L 582 321 L 582 323 Q 578 321 580 319 Q 576 320 577 317 L 575 318 L 573 318 L 575 317 Q 576 313 573 314 L 572 311 L 568 311 L 568 304 Q 563 306 564 302 L 556 303 L 553 300 L 554 297 L 553 297 L 544 296 L 535 289 L 532 290 L 529 289 L 533 287 L 534 288 L 534 284 L 523 284 Q 523 281 518 282 L 518 285 L 513 284 L 511 284 L 509 285 Q 505 286 506 283 L 492 280 L 478 280 L 477 281 Q 471 283 470 280 L 438 280 L 437 279 L 374 279 L 373 280 L 368 280 Q 370 275 366 276 Z M 513 279 L 513 281 L 516 280 L 513 279 Z M 540 286 L 540 288 L 545 288 Q 544 285 540 286 Z M 361 290 L 359 296 L 359 315 L 360 316 L 360 324 L 362 324 L 362 292 L 361 290 Z M 327 421 Q 326 424 329 423 Q 330 420 327 421 Z M 465 463 L 465 464 L 470 465 L 499 465 L 500 464 Q 504 463 506 465 L 537 465 L 539 464 L 465 463 Z M 684 464 Q 682 470 688 468 Q 690 473 684 471 L 684 474 L 692 476 L 688 476 Q 687 480 692 478 L 692 480 L 696 478 L 696 476 L 694 476 L 698 474 L 699 472 L 696 470 Q 691 472 692 468 L 690 466 L 688 467 Q 689 462 684 464 Z M 700 464 Q 699 467 702 466 Q 703 463 700 464 Z M 698 466 Q 696 471 700 470 Q 702 465 698 466 Z M 700 472 Q 699 476 704 474 Q 705 470 700 472 Z M 708 472 L 708 480 L 710 480 L 710 473 L 708 472 Z M 395 481 L 392 485 L 394 485 L 395 483 L 395 481 Z M 692 484 Q 694 490 688 488 L 688 496 Q 694 494 692 500 Q 696 501 694 496 L 696 496 L 696 488 Q 692 489 694 484 L 692 484 Z M 396 486 Q 395 490 400 488 Q 401 484 396 486 Z M 640 487 L 640 488 L 642 488 L 640 487 Z M 676 488 Q 678 494 672 492 Q 670 498 676 496 L 676 500 Q 680 501 678 496 L 680 496 Q 681 491 678 492 L 678 488 L 676 488 Z " /><path fill="rgb(253,253,253)" stroke="rgb(253,253,253)" stroke-width="1" opacity="1" d="M 1022.5 0 L 1023 767.5 L 1022 767.5 L 1022.5 0 Z " /><path fill="rgb(253,253,253)" stroke="rgb(253,253,253)" stroke-width="1" opacity="1" d="M 391.5 281 L 403 281.5 L 391.5 282 L 391.5 281 Z " /><path fill="rgb(253,253,253)" stroke="rgb(253,253,253)" stroke-width="1" opacity="1" d="M 407.5 281 L 411 281.5 L 407.5 282 L 407.5 281 Z " /><path fill="rgb(253,253,253)" stroke="rgb(253,253,253)" stroke-width="1" opacity="1" d="M 418.5 281 L 425 281.5 L 418.5 282 L 418.5 281 Z " /><path fill="rgb(253,253,253)" stroke="rgb(253,253,253)" stroke-width="1" opacity="1" d="M 432.5 281 L 467 281.5 L 432.5 282 L 432.5 281 Z " /><path fill="rgb(253,253,253)" stroke="rgb(253,253,253)" stroke-width="1" opacity="1" d="M 522.5 288 L 526 288.5 Q 524.8 291.3 523.5 289 L 522.5 288 Z " /><path fill="rgb(253,253,253)" stroke="rgb(253,253,253)" stroke-width="1" opacity="1" d="M 366.5 290 L 367 317.5 L 366 317.5 L 366.5 290 Z " /><path fill="rgb(253,253,253)" stroke="rgb(253,253,253)" stroke-width="1" opacity="1" d="M 527.5 290 L 531 291.5 L 529.5 291 Q 526.5 291.5 527.5 290 Z " /><path fill="rgb(253,253,253)" stroke="rgb(253,253,253)" stroke-width="1" opacity="1" d="M 565.5 310 L 566.5 312 L 565.5 310 Z " /><path fill="rgb(253,253,253)" stroke="rgb(253,253,253)" stroke-width="1" opacity="1" d="M 570.5 314 L 571.5 316 Q 568.7 316.7 570.5 314 Z " /><path fill="rgb(253,253,253)" stroke="rgb(253,253,253)" stroke-width="1" opacity="1" d="M 462.5 321 L 487 321.5 L 462.5 322 L 462.5 321 Z " /><path fill="rgb(253,253,253)" stroke="rgb(253,253,253)" stroke-width="1" opacity="1" d="M 585 324 L 588 324.5 L 585.5 326 L 585 324 Z " /><path fill="rgb(253,253,253)" stroke="rgb(253,253,253)" stroke-width="1" opacity="1" d="M 529.5 334 L 531.5 338 L 533 338.5 Q 530.2 339.6 531 343 L 528 343 L 528 335.5 L 529.5 334 Z " /><path fill="rgb(253,253,253)" stroke="rgb(253,253,253)" stroke-width="1" opacity="1" d="M 541.5 342 L 542.5 344 Q 539.7 344.7 541.5 342 Z " /><path fill="rgb(253,253,253)" stroke="rgb(253,253,253)" stroke-width="1" opacity="1" d="M 633.5 342 L 637 342.5 L 633.5 343 L 633.5 342 Z " /><path fill="rgb(253,253,253)" stroke="rgb(253,253,253)" stroke-width="1" opacity="1" d="M 441.5 382 L 459.5 382 L 460 384 L 461.5 384 L 464.5 382 L 480 382 L 480.5 384 L 501.5 384 L 504.5 382 L 520.5 382 L 528 383.5 L 526 384 Q 524.3 389.2 528 388 Q 526.7 383.9 530 385 Q 528.4 389.9 534 388 L 534.5 386 L 569.5 386 L 570 384 L 564 383.5 L 594.5 383 L 595.5 384 L 617.5 385 L 617.5 384 Q 611.5 385.5 610 382.5 L 620.5 382 L 623.5 383 L 626.5 382 L 627.5 383 L 648 383 L 648 388 L 656 388 L 656 384 L 654.5 384 L 654.5 383 L 657.5 384 Q 658.8 381.8 660 384.5 L 660 388 L 663.5 388 Q 662.7 391.3 668 390 L 668 386 Q 665 387 666 384 L 662.5 384 L 662.5 383 L 667.5 382 L 668.5 383 L 678.5 383 L 683.5 382 L 683.5 383 L 681 383.5 L 685.5 384 L 687 383.5 L 687.5 385 L 689.5 384 L 694 387.5 L 693 391.5 L 696 393 Q 695 396 698 395 L 698.5 393 Q 698.3 398.3 701 400.5 L 701 421 L 681 420.5 L 688 420 L 687.5 418 L 680.5 418 Q 679.3 420.3 678 417.5 L 680 417.5 L 679 412 L 675.5 413 L 676 411.5 L 674.5 409 L 673.5 410 L 670.5 407 L 669 406.5 L 671 405.5 L 670.5 404 L 673 405 L 672 398 Q 669 397 670 400 L 667 400 L 667 401.5 Q 669.3 402.8 666.5 404 L 664 402.5 L 666 402 L 665.5 400 L 663.5 400 L 661 398.5 L 662 395 L 657 395 L 657 392.5 L 656 392.5 L 657 396.5 L 654.5 398 L 654.5 397 L 656 396.5 Q 652.9 393.6 646 394.5 L 648 393.5 L 633.5 391 L 633.5 393 L 629.5 391 L 629 394 L 632 394.5 Q 624.3 393.8 621.5 398 L 621.5 396 Q 618.9 395.3 620 398 L 618 398 L 618 399.5 L 616.5 399 L 613 399.5 L 614 401.5 L 613 401.5 L 611.5 399 L 611 400.5 Q 613.3 401.7 610.5 403 Q 607.9 402.2 609 405.5 L 605.5 408 L 605.5 406 L 602.5 408 L 600.5 407 L 599 409.5 L 599 411.5 Q 600.7 416.3 596.5 415 L 596.5 416 L 598.5 417 L 600 416.5 L 597 417.5 L 598 419.5 L 596.5 419 Q 594.3 418.3 595 420.5 L 595.5 422 Q 590 423.5 588.5 421 L 562 421 L 562 416 Q 568 418 566 412 L 556.5 412 L 556 415 L 553.5 415 L 552.5 416 L 544 416 L 543.5 412 L 524 412 Q 525.7 416.1 521.5 415 L 512 417 L 511.5 419 L 500 419 L 499.5 417 L 482.5 417 L 478 418 L 478.5 420 L 488.5 420 L 488.5 421 L 443.5 421 Q 442.3 418.7 437.5 420 L 436.5 421 L 416.5 421 L 415 418 Q 417.7 419.1 417 416.5 L 413 414.5 L 412.5 412 L 411.5 414 L 411 412.5 L 414.5 411 L 416 411.5 L 416 408 L 414 408 Q 415.1 405.3 412.5 406 L 410 407 L 410 402 Q 407 403 408 400 L 404 400 Q 405.1 397.3 402.5 398 L 400 399 Q 402 393 396 395 L 395.5 397 Q 393.8 393.5 388 395 Q 389.8 390.5 384.5 392 L 382.5 393 L 380 392 L 380 388.5 Q 376.8 389.3 378 384 L 371.5 384 L 371.5 383 L 440.5 383 L 441.5 382 Z M 397 384 L 397 385 L 399 385 L 397 384 Z M 624 384 L 624 390 L 636 390 L 637 388 L 644 388 L 644 384 L 624 384 Z M 690 385 Q 687 387 688 392 L 692 390 L 690 385 Z M 396 386 Q 395 390 400 388 Q 401 384 396 386 Z M 678 388 Q 679 391 676 390 L 676 394 Q 673 393 674 396 L 678 396 Q 676 391 680 392 Q 682 387 678 388 Z M 614 390 L 614 394 L 620 394 L 620 391 L 614 390 Z M 412 392 Q 410 398 416 396 Q 418 390 412 392 Z M 408 396 Q 406 401 410 400 Q 412 395 408 396 Z M 416 396 Q 414 402 420 400 Q 422 394 416 396 Z M 694 396 Q 696 401 692 400 L 691 404 Q 687 403 688 406 Q 691 405 693 408 L 696 407 L 696 397 L 694 396 Z M 674 400 Q 672 405 676 404 Q 678 399 674 400 Z M 606 403 L 606 405 L 608 406 Q 609 402 606 403 Z M 416 412 L 416 415 L 418 416 L 436 416 L 436 418 L 448 418 L 448 420 L 466 420 L 466 418 L 462 417 L 448 417 L 447 414 L 422 414 Q 420 411 416 412 Z M 580 412 L 580 416 L 575 415 Q 569 414 567 416 L 568 420 L 569 418 L 569 420 L 589 420 L 591 421 L 592 419 L 591 415 Q 586 414 585 416 L 582 416 Q 584 411 580 412 Z M 594 416 L 594 419 L 596 418 Q 597 415 594 416 Z M 698 417 L 697 418 Q 694 417 695 420 L 700 420 L 700 418 L 698 417 Z " /><path fill="rgb(253,253,253)" stroke="rgb(253,253,253)" stroke-width="1" opacity="1" d="M 738.5 390 Q 741.3 391.4 740 396 Q 743.7 394.6 742 400.5 L 740 399.5 L 738.5 390 Z " /><path fill="rgb(253,253,253)" stroke="rgb(253,253,253)" stroke-width="1" opacity="1" d="M 359.5 391 L 361.5 392 L 363.5 391 L 367 392.5 L 364.5 393 L 363 392.5 L 363 395 L 358 395 L 357 392.5 L 359.5 391 Z " /><path fill="rgb(253,253,253)" stroke="rgb(253,253,253)" stroke-width="1" opacity="1" d="M 372.5 392 L 375 392.5 L 372.5 393 L 372.5 392 Z " /><path fill="rgb(253,253,253)" stroke="rgb(253,253,253)" stroke-width="1" opacity="1" d="M 355.5 396 L 356 398 L 354 397.5 L 355.5 396 Z " /><path fill="rgb(253,253,253)" stroke="rgb(253,253,253)" stroke-width="1" opacity="1" d="M 392.5 396 L 393 398 L 391 397.5 L 392.5 396 Z " /><path fill="rgb(253,253,253)" stroke="rgb(253,253,253)" stroke-width="1" opacity="1" d="M 658.5 396 L 659.5 398 L 658.5 396 Z " /><path fill="rgb(253,253,253)" stroke="rgb(253,253,253)" stroke-width="1" opacity="1" d="M 394.5 399 L 398 401.5 L 395.5 400 L 394.5 399 Z " /><path fill="rgb(253,253,253)" stroke="rgb(253,253,253)" stroke-width="1" opacity="1" d="M 741.5 407 L 742 416.5 L 741 416.5 L 740 409.5 L 741.5 407 Z " /><path fill="rgb(253,253,253)" stroke="rgb(253,253,253)" stroke-width="1" opacity="1" d="M 333.5 415 L 332.5 417 L 333.5 415 Z " /><path fill="rgb(253,253,253)" stroke="rgb(253,253,253)" stroke-width="1" opacity="1" d="M 540.5 418 Q 545.5 417 544.5 420 L 555.5 420 L 555.5 421 L 509 420.5 L 541 419.5 L 540.5 418 Z " /><path fill="rgb(253,253,253)" stroke="rgb(253,253,253)" stroke-width="1" opacity="1" d="M 495.5 420 L 499 420.5 L 495.5 421 L 495.5 420 Z " /><path fill="rgb(253,253,253)" stroke="rgb(253,253,253)" stroke-width="1" opacity="1" d="M 741.5 423 L 742 432.5 L 741 432.5 L 740 425.5 L 741.5 423 Z " /><path fill="rgb(253,253,253)" stroke="rgb(253,253,253)" stroke-width="1" opacity="1" d="M 741.5 439 L 742 448.5 L 741 448.5 L 740 441.5 L 741.5 439 Z " /><path fill="rgb(253,253,253)" stroke="rgb(253,253,253)" stroke-width="1" opacity="1" d="M 457.5 460 L 464 460.5 L 457.5 461 L 457.5 460 Z " /><path fill="rgb(253,253,253)" stroke="rgb(253,253,253)" stroke-width="1" opacity="1" d="M 540.5 460 L 552 460.5 L 540.5 461 L 540.5 460 Z " /><path fill="rgb(253,253,253)" stroke="rgb(253,253,253)" stroke-width="1" opacity="1" d="M 578.5 460 L 584 460.5 L 578.5 461 L 578.5 460 Z " /><path fill="rgb(253,253,253)" stroke="rgb(253,253,253)" stroke-width="1" opacity="1" d="M 722 461 L 728 461 L 728 464 L 722 464 L 722 461 Z " /><path fill="rgb(253,253,253)" stroke="rgb(253,253,253)" stroke-width="1" opacity="1" d="M 334.5 464 L 336 466.5 L 334 465.5 L 334.5 464 Z " /><path fill="rgb(253,253,253)" stroke="rgb(253,253,253)" stroke-width="1" opacity="1" d="M 398.5 478 L 399.5 480 L 398.5 478 Z " /><path fill="rgb(253,253,253)" stroke="rgb(253,253,253)" stroke-width="1" opacity="1" d="M 628.5 484 L 633 485.5 L 628 486 L 628.5 484 Z " /><path fill="rgb(253,253,253)" stroke="rgb(253,253,253)" stroke-width="1" opacity="1" d="M 372.5 486 L 376 486.5 L 371.5 488 L 372.5 486 Z " /><path fill="rgb(149,105,225)" stroke="rgb(149,105,225)" stroke-width="1" opacity="1" d="M 412.5 283 L 493 283.5 L 412 284.5 L 415.5 286 L 418 285 Q 416.8 288.7 422 287 L 422.5 285 L 442.5 285 L 442.5 286 L 428.5 286 L 428 288 L 439 288 L 439 304 L 436 304.5 L 436 315 L 444 315.5 L 442.5 317 Q 437 315.5 435.5 318 L 412.5 318 L 402.5 320 L 368.5 320 L 369 318.5 L 369 284 L 411.5 284 L 412.5 283 Z M 378 318 L 378 319 L 388 319 L 378 318 Z " /><path fill="rgb(149,105,225)" stroke="rgb(149,105,225)" stroke-width="1" opacity="1" d="M 498.5 284 L 501 284.5 L 498.5 285 L 498.5 284 Z " /><path fill="rgb(149,105,225)" stroke="rgb(149,105,225)" stroke-width="1" opacity="1" d="M 565.5 312 L 566.5 314 L 565.5 312 Z " /><path fill="rgb(149,105,225)" stroke="rgb(149,105,225)" stroke-width="1" opacity="1" d="M 448.5 317 L 452 317.5 L 448.5 318 L 448.5 317 Z " /><path fill="rgb(149,105,225)" stroke="rgb(149,105,225)" stroke-width="1" opacity="1" d="M 575.5 319 L 576.5 321 L 575.5 319 Z " /><path fill="rgb(149,105,225)" stroke="rgb(149,105,225)" stroke-width="1" opacity="1" d="M 490.5 320 L 494 320.5 L 490.5 321 L 490.5 320 Z " /><path fill="rgb(149,105,225)" stroke="rgb(149,105,225)" stroke-width="1" opacity="1" d="M 545.5 343 L 546.5 345 L 545.5 343 Z " /><path fill="rgb(149,105,225)" stroke="rgb(149,105,225)" stroke-width="1" opacity="1" d="M 640.5 344 L 644 344.5 L 640.5 345 L 640.5 344 Z " /><path fill="rgb(149,105,225)" stroke="rgb(149,105,225)" stroke-width="1" opacity="1" d="M 285 345 L 429.5 346 L 434 347 Q 431.7 353.4 439.5 351 L 446 350 L 446 352 L 440.5 352 L 440 352.5 L 440 378 L 454 378.5 L 451.5 380 L 380 380.5 L 440 381.5 L 285 382 L 285 345 Z M 428 362 Q 427 366 432 364 Q 433 360 428 362 Z " /><path fill="rgb(149,105,225)" stroke="rgb(149,105,225)" stroke-width="1" opacity="1" d="M 694.5 386 L 697.5 390 L 694.5 386 Z " /><path fill="rgb(149,105,225)" stroke="rgb(149,105,225)" stroke-width="1" opacity="1" d="M 367.5 395 L 379 395.5 L 376 396.5 L 380.5 397 L 383.5 396 L 383.5 398 L 387.5 397 L 387.5 398 L 386 398.5 L 390.5 400 L 392 399.5 L 392.5 401 L 394 400.5 Q 391.8 401.7 394.5 403 L 400.5 406 L 401.5 405 L 408 411.5 L 408 413.5 L 408.5 415 Q 409.7 412.7 411 415.5 L 409 415.5 L 410.5 419 L 413 419.5 L 412 423 L 414 422.5 L 413.5 421 L 414.5 422 L 512 422.5 L 414 423.5 L 444.5 424 L 446 425.5 L 442 426 Q 443.2 429.7 438 428 L 438 432 L 440 432.5 L 440 448 L 434 448 L 434 455.5 L 432.5 456 L 431.5 457 L 416.5 458 L 414.5 458 L 412.5 457 L 411 461.5 L 413 461.5 Q 411.3 464.8 409.5 461 Q 406.9 460.2 408 463.5 L 411 464.5 L 408 465.5 L 409 467.5 L 400.5 476 Q 396 475 395 477.5 Q 397.3 478.8 394.5 480 L 394.5 478 L 392 479.5 L 392.5 481 L 390 480 L 389.5 482 L 386.5 481 L 386.5 482 L 388 482.5 L 386.5 483 L 383.5 482 L 383.5 483 L 385 483.5 L 382.5 484 Q 381.3 481.7 376.5 483 L 376.5 484 L 380 484.5 L 376.5 485 L 373.5 484 Q 372 486.5 366.5 485 L 366.5 484 L 368 483.5 L 364.5 483 L 361.5 484 L 361.5 482 L 358.5 483 L 350 478.5 L 349.5 477 Q 348.3 479.3 347 476.5 L 346.5 475 L 345.5 476 L 337 467.5 L 337.5 466 L 335 464.5 L 335.5 463 L 333 461.5 L 331 456.5 L 331.5 455 Q 329.3 455.8 330 453.5 L 331 451.5 L 329 451.5 L 330 449.5 L 329.5 447 L 328 446.5 L 328 433.5 L 329 429 L 331 428.5 L 330 425.5 L 331 423 L 333 422.5 L 332 420.5 L 334 417 L 336 416.5 Q 333.8 415.3 336.5 414 L 338 413.5 L 337 412.5 L 345.5 404 L 347 404.5 L 348.5 402 L 350 402.5 L 350.5 401 L 352 401.5 L 353.5 399 L 356.5 400 L 356.5 398 L 359 399 L 359.5 397 L 362.5 398 L 362.5 396 L 369.5 397 L 369.5 396 Q 366.5 396.5 367.5 395 Z M 402 406 Q 400 409 403 408 L 402 406 Z M 434 428 Q 432 433 436 432 Q 438 427 434 428 Z " /><path fill="rgb(149,105,225)" stroke="rgb(149,105,225)" stroke-width="1" opacity="1" d="M 643.5 395 L 646 395.5 L 643.5 396 L 643.5 395 Z " /><path fill="rgb(149,105,225)" stroke="rgb(149,105,225)" stroke-width="1" opacity="1" d="M 667.5 405 L 672.5 411 L 667.5 405 Z " /><path fill="rgb(149,105,225)" stroke="rgb(149,105,225)" stroke-width="1" opacity="1" d="M 602.5 413 L 601.5 415 L 602.5 413 Z " /><path fill="rgb(149,105,225)" stroke="rgb(149,105,225)" stroke-width="1" opacity="1" d="M 673.5 468 L 672.5 470 L 673.5 468 Z " /><path fill="rgb(149,105,225)" stroke="rgb(149,105,225)" stroke-width="1" opacity="1" d="M 605.5 470 L 609.5 475 L 605.5 470 Z " /><path fill="rgb(253,253,253)" stroke="rgb(253,253,253)" stroke-width="1" opacity="0.9372549019607843" d="M 1023.5 0 L 1024 767.5 L 1023 767.5 L 1023.5 0 Z " /><path fill="rgb(119,88,205)" stroke="rgb(119,88,205)" stroke-width="1" opacity="1" d="M 368 283 L 411.5 283 L 412.5 284 L 479.5 284 L 480.5 285 L 482.5 284 L 485.5 285 L 487.5 284 Q 489.3 286.7 495.5 285 L 497.5 284 L 503.5 286 Q 505 283.5 506.5 287 L 510 286 Q 508.8 289 512.5 288 L 514.5 288 L 516.5 289 L 518 288.5 Q 517.3 290.8 519.5 290 L 521 289.5 Q 520.2 292.1 523.5 291 L 528.5 293 L 530 292.5 L 531.5 295 L 534.5 294 L 534.5 296 L 536.5 295 L 536.5 297 L 538.5 296 L 537.5 299 L 540.5 297 L 540.5 299 L 542.5 298 L 542.5 300 L 544.5 299 L 544.5 301 L 548.5 303 L 550 302.5 L 549.5 304 L 551.5 303 L 551.5 305 L 553.5 306 L 555 305.5 L 554.5 307 L 556.5 308 L 558 307.5 L 557.5 309 L 559.5 310 L 561 309.5 L 560.5 311 L 562.5 312 L 564 311.5 L 567.5 316 Q 570.1 315.3 569 318 L 571.5 318 L 574 318.5 L 573 321 L 577.5 324 L 581 323.5 L 580 326.5 L 581.5 328 L 583.5 327 L 587.5 329 L 589 328.5 Q 586.8 329.8 589.5 331 Q 591.8 330.3 591 332.5 L 591.5 334 Q 589.3 334.8 590 332.5 L 589 332.5 L 588 334.5 L 588 362 Q 585 361 586 364 Q 589.7 362.8 588 368 L 584 368 L 584 379.5 L 583.5 380 L 532.5 380 L 532.5 381 L 597 381.5 L 440.5 382 L 439.5 381 L 380 380.5 L 451.5 380 L 454 378.5 L 440 378 L 440 352.5 L 440.5 352 L 446 352 L 446 350 L 434 351 Q 436.2 345.4 430.5 347 L 429.5 346 L 355 345.5 L 497.5 345 L 498.5 346 L 544.5 346 L 547 344.5 L 545.5 342 L 544 342.5 L 544.5 341 L 542.5 340 Q 541.3 342.3 540 339.5 L 539.5 338 L 538 338.5 L 538.5 337 L 536.5 336 L 535 336.5 L 535.5 335 L 531.5 333 L 530 333.5 L 530.5 332 L 522.5 328 L 520.5 328 Q 517.9 328.7 519 326 L 516.5 326 L 514 325.5 L 514.5 324 L 511.5 325 L 508 324 Q 509.3 321 505.5 322 L 504 322.5 Q 504.8 320.3 502.5 321 L 500.5 322 L 496.5 320 L 494 321 Q 495.4 317 488.5 319 L 487.5 320 L 403.5 320 L 403.5 319 L 435.5 318 Q 437 315.5 442.5 317 L 444 315.5 L 436 315 L 436 304.5 L 439 303.5 L 439 288 L 428.5 288 L 428 286 L 443 285.5 L 422 285 Q 423.2 288.7 418 287 Q 419.1 284.3 416.5 285 L 414.5 286 L 411.5 284 L 369 284 L 368.5 319 L 368 283 Z M 449 317 L 449 318 L 452 318 L 449 317 Z M 577 325 L 575 327 Q 577 330 578 327 Q 579 324 577 325 Z " /><path fill="rgb(119,88,205)" stroke="rgb(119,88,205)" stroke-width="1" opacity="1" d="M 377.5 318 L 388 318.5 L 377.5 319 L 377.5 318 Z " /><path fill="rgb(119,88,205)" stroke="rgb(119,88,205)" stroke-width="1" opacity="1" d="M 637.5 344 L 640 344.5 L 637.5 345 L 637.5 344 Z " /><path fill="rgb(119,88,205)" stroke="rgb(119,88,205)" stroke-width="1" opacity="1" d="M 718.5 358 L 719.5 360 L 718.5 358 Z " /><path fill="rgb(119,88,205)" stroke="rgb(119,88,205)" stroke-width="1" opacity="1" d="M 428 362 Q 433.2 360.3 432 364 Q 426.8 365.7 428 362 Z " /><path fill="rgb(119,88,205)" stroke="rgb(119,88,205)" stroke-width="1" opacity="1" d="M 724.5 364 L 725.5 366 L 724.5 364 Z " /><path fill="rgb(119,88,205)" stroke="rgb(119,88,205)" stroke-width="1" opacity="1" d="M 365.5 396 L 370 396.5 L 365.5 397 L 365.5 396 Z " /><path fill="rgb(119,88,205)" stroke="rgb(119,88,205)" stroke-width="1" opacity="1" d="M 376.5 396 L 381 396.5 L 376.5 397 L 376.5 396 Z " /><path fill="rgb(119,88,205)" stroke="rgb(119,88,205)" stroke-width="1" opacity="1" d="M 738.5 396 L 739 398.5 L 738 398.5 L 738.5 396 Z " /><path fill="rgb(119,88,205)" stroke="rgb(119,88,205)" stroke-width="1" opacity="1" d="M 360.5 397 L 363 397.5 L 360.5 398 L 360.5 397 Z " /><path fill="rgb(119,88,205)" stroke="rgb(119,88,205)" stroke-width="1" opacity="1" d="M 383.5 397 L 391 399.5 L 388.5 400 L 383.5 398 L 383.5 397 Z " /><path fill="rgb(119,88,205)" stroke="rgb(119,88,205)" stroke-width="1" opacity="1" d="M 357.5 398 L 359 398.5 L 355.5 400 L 355.5 399 L 357.5 398 Z " /><path fill="rgb(119,88,205)" stroke="rgb(119,88,205)" stroke-width="1" opacity="1" d="M 392.5 400 Q 403.3 404.3 409 413.5 L 412 418.5 L 410.5 419 L 408 413.5 L 402.5 408 Q 400.3 408.8 401 406.5 L 394.5 403 L 392.5 400 Z " /><path fill="rgb(119,88,205)" stroke="rgb(119,88,205)" stroke-width="1" opacity="1" d="M 614.5 402 L 617 403.5 L 615 404.5 L 614.5 402 Z " /><path fill="rgb(119,88,205)" stroke="rgb(119,88,205)" stroke-width="1" opacity="1" d="M 346.5 404 L 343.5 408 L 346.5 404 Z " /><path fill="rgb(119,88,205)" stroke="rgb(119,88,205)" stroke-width="1" opacity="1" d="M 339.5 411 L 337.5 414 L 339.5 411 Z " /><path fill="rgb(119,88,205)" stroke="rgb(119,88,205)" stroke-width="1" opacity="1" d="M 412.5 420 L 414.5 423 L 596.5 422 L 596.5 423 L 524 423.5 L 582.5 424 L 584 425.5 L 585 448 L 590 448 L 590 456 L 572 456.5 L 584 457.5 L 514.5 458 L 513.5 459 L 413 459 Q 414.1 461.7 411.5 461 L 412 459.5 L 412.5 457 L 414.5 458 L 416.5 458 L 431.5 457 L 434 456 L 434 448 L 439.5 448 L 440 447.5 L 440 432 Q 436.3 433.2 438 428 Q 443.3 429.3 442.5 426 L 445.5 426 L 444.5 424 L 414.5 424 L 412 423 L 412.5 420 Z " /><path fill="rgb(119,88,205)" stroke="rgb(119,88,205)" stroke-width="1" opacity="1" d="M 598.5 420 L 599.5 422 L 598.5 420 Z " /><path fill="rgb(119,88,205)" stroke="rgb(119,88,205)" stroke-width="1" opacity="1" d="M 683.5 422 L 691 422.5 L 683.5 423 L 683.5 422 Z " /><path fill="rgb(119,88,205)" stroke="rgb(119,88,205)" stroke-width="1" opacity="1" d="M 434 428 Q 437.7 426.8 436 432 Q 432.3 433.2 434 428 Z " /><path fill="rgb(119,88,205)" stroke="rgb(119,88,205)" stroke-width="1" opacity="1" d="M 408 461 L 411 462.5 Q 409.6 468.6 404.5 471 L 408 466.5 L 409 464.5 L 408 461 Z " /><path fill="rgb(119,88,205)" stroke="rgb(119,88,205)" stroke-width="1" opacity="1" d="M 335.5 463 L 336.5 465 L 335.5 463 Z " /><path fill="rgb(119,88,205)" stroke="rgb(119,88,205)" stroke-width="1" opacity="1" d="M 337.5 466 L 339.5 469 L 337.5 466 Z " /><path fill="rgb(119,88,205)" stroke="rgb(119,88,205)" stroke-width="1" opacity="1" d="M 671.5 470 L 668.5 474 L 671.5 470 Z " /><path fill="rgb(119,88,205)" stroke="rgb(119,88,205)" stroke-width="1" opacity="1" d="M 402.5 472 L 400.5 475 L 402.5 472 Z " /><path fill="rgb(119,88,205)" stroke="rgb(119,88,205)" stroke-width="1" opacity="1" d="M 345.5 474 L 346.5 476 L 345.5 474 Z " /><path fill="rgb(119,88,205)" stroke="rgb(119,88,205)" stroke-width="1" opacity="1" d="M 611.5 475 L 612.5 477 L 611.5 475 Z " /><path fill="rgb(119,88,205)" stroke="rgb(119,88,205)" stroke-width="1" opacity="1" d="M 348.5 476 L 349.5 478 L 348.5 476 Z " /><path fill="rgb(119,88,205)" stroke="rgb(119,88,205)" stroke-width="1" opacity="1" d="M 396.5 476 L 399 476.5 L 390.5 481 L 390.5 480 L 396.5 476 Z " /><path fill="rgb(119,88,205)" stroke="rgb(119,88,205)" stroke-width="1" opacity="1" d="M 386.5 481 L 389 481.5 L 383.5 483 L 383.5 482 L 386.5 481 Z " /><path fill="rgb(119,88,205)" stroke="rgb(119,88,205)" stroke-width="1" opacity="1" d="M 364.5 483 L 368 483.5 L 364.5 484 L 364.5 483 Z " /><path fill="rgb(119,88,205)" stroke="rgb(119,88,205)" stroke-width="1" opacity="1" d="M 376.5 483 L 382 483.5 L 373.5 485 L 373.5 484 L 376.5 483 Z " /><path fill="rgb(119,88,205)" stroke="rgb(119,88,205)" stroke-width="1" opacity="1" d="M 632.5 484 L 635 484.5 L 632.5 485 L 632.5 484 Z " /><path fill="rgb(77,63,177)" stroke="rgb(77,63,177)" stroke-width="1" opacity="1" d="M 483.5 284 L 486 284.5 L 483.5 285 L 483.5 284 Z " /><path fill="rgb(77,63,177)" stroke="rgb(77,63,177)" stroke-width="1" opacity="1" d="M 488.5 284 L 496 284.5 L 488.5 285 L 488.5 284 Z " /><path fill="rgb(77,63,177)" stroke="rgb(77,63,177)" stroke-width="1" opacity="1" d="M 501.5 285 L 504 285.5 L 501.5 286 L 501.5 285 Z " /><path fill="rgb(77,63,177)" stroke="rgb(77,63,177)" stroke-width="1" opacity="1" d="M 510.5 287 L 513 287.5 L 510.5 288 L 510.5 287 Z " /><path fill="rgb(77,63,177)" stroke="rgb(77,63,177)" stroke-width="1" opacity="1" d="M 521.5 290 L 527 291.5 L 524.5 292 L 521.5 291 L 521.5 290 Z " /><path fill="rgb(77,63,177)" stroke="rgb(77,63,177)" stroke-width="1" opacity="1" d="M 530.5 293 Q 548.9 300.1 563 311.5 L 561.5 311 L 559.5 312 L 558.5 309 L 548.5 303 L 547 303.5 L 547.5 302 L 539.5 298 L 537.5 299 L 537.5 297 L 531.5 295 L 530.5 293 Z " /><path fill="rgb(77,63,177)" stroke="rgb(77,63,177)" stroke-width="1" opacity="1" d="M 564.5 312 L 588.5 329 L 616.5 341 L 637.5 345 L 687.5 345 Q 688.8 347.3 693.5 346 Q 712.8 350.7 724 363.5 Q 734.3 374.2 738 391.5 Q 736.2 397.8 739 399.5 L 739 459 L 679.5 459 L 678 460.5 Q 673.8 471.3 664.5 477 L 648.5 484 L 635.5 485 Q 634 482.5 628.5 484 L 614.5 478 L 603 467.5 L 599 461.5 L 599 459 L 514 458.5 L 584 457.5 L 572 456.5 L 590 456 L 590 448 L 585 447.5 L 585 432.5 Q 582.5 431 584 425.5 L 582.5 424 L 524 423.5 L 596.5 423 L 599 420.5 L 601 415.5 L 610.5 405 Q 621 395.5 640.5 395 Q 642.2 397.8 648.5 396 L 662.5 402 L 675 413.5 L 679 422 L 690.5 423 Q 692.3 420.3 698.5 422 L 700.5 423 L 702 421.5 L 702 397.5 Q 699.5 389.5 693.5 385 L 687.5 382 L 597.5 382 L 596.5 381 L 532 380.5 L 584 380 L 584 368.5 L 588 368 L 588 364 Q 585 365 586 362 L 588 361.5 L 588 334.5 L 589 332.5 L 587.5 329 L 583.5 327 L 581.5 328 L 578.5 323 L 577.5 324 L 574.5 321 Q 572.3 321.8 573 319.5 L 569.5 318 L 569.5 319 L 571 319.5 L 569.5 320 L 567 318.5 L 569 318 Q 570.1 315.3 567.5 316 L 564.5 312 Z M 590 331 L 590 333 Q 589 335 592 334 L 591 333 Q 592 330 590 331 Z M 615 403 L 615 405 L 617 404 L 615 403 Z " /><path fill="rgb(77,63,177)" stroke="rgb(77,63,177)" stroke-width="1" opacity="1" d="M 488.5 319 L 494 319.5 L 488.5 320 L 488.5 319 Z " /><path fill="rgb(77,63,177)" stroke="rgb(77,63,177)" stroke-width="1" opacity="1" d="M 496.5 320 L 499 320.5 L 496.5 321 L 496.5 320 Z " /><path fill="rgb(77,63,177)" stroke="rgb(77,63,177)" stroke-width="1" opacity="1" d="M 505.5 322 L 508 322.5 L 505.5 323 L 505.5 322 Z " /><path fill="rgb(77,63,177)" stroke="rgb(77,63,177)" stroke-width="1" opacity="1" d="M 512.5 324 L 516 325.5 L 514.5 325 Q 511.5 325.5 512.5 324 Z " /><path fill="rgb(77,63,177)" stroke="rgb(77,63,177)" stroke-width="1" opacity="1" d="M 576.5 325 Q 578.8 324.3 578 326.5 Q 576.5 329.5 575 326.5 L 576.5 325 Z " /><path fill="rgb(77,63,177)" stroke="rgb(77,63,177)" stroke-width="1" opacity="1" d="M 522.5 328 L 525.5 329 L 527 328.5 L 526 329.5 L 527.5 332 Q 522.9 330.8 522.5 328 Z " /><path fill="rgb(77,63,177)" stroke="rgb(77,63,177)" stroke-width="1" opacity="1" d="M 529.5 332 L 540 338.5 L 538.5 338 L 529.5 333 L 529.5 332 Z " /><path fill="rgb(77,63,177)" stroke="rgb(77,63,177)" stroke-width="1" opacity="1" d="M 542.5 340 L 546 342.5 L 544.5 342 L 542.5 340 Z " /><path fill="rgb(77,63,177)" stroke="rgb(77,63,177)" stroke-width="1" opacity="1" d="M 498.5 345 L 545 345.5 L 498.5 346 L 498.5 345 Z " /></svg>