<svg width="300" height="100" viewBox="0 0 300 100" fill="none" xmlns="http://www.w3.org/2000/svg">
  <!-- Background Circle -->
  <circle cx="50" cy="50" r="45" fill="#92A1C2" opacity="0.2"/>

  <!-- Car Icon -->
  <g transform="translate(20, 30)">
    <!-- Car Body -->
    <path d="M10 25 L15 15 L45 15 L50 25 L55 25 L55 35 L5 35 L5 25 Z" fill="#BD6C73"/>
    <!-- Car Windows -->
    <rect x="18" y="17" width="12" height="8" rx="1" fill="#2E365A" opacity="0.3"/>
    <rect x="32" y="17" width="12" height="8" rx="1" fill="#2E365A" opacity="0.3"/>
    <!-- Car Wheels -->
    <circle cx="15" cy="35" r="5" fill="#2E365A"/>
    <circle cx="15" cy="35" r="3" fill="#6B597F"/>
    <circle cx="45" cy="35" r="5" fill="#2E365A"/>
    <circle cx="45" cy="35" r="3" fill="#6B597F"/>
    <!-- Headlight -->
    <circle cx="52" cy="28" r="2" fill="#A2B69C"/>
  </g>

  <!-- Text "Habilitar+" -->
  <text x="110" y="45" font-family="Arial, sans-serif" font-weight="bold" font-size="28" fill="#2E365A">
    Habilitar
  </text>
  <text x="110" y="70" font-family="Arial, sans-serif" font-weight="300" font-size="14" fill="#6B597F" letter-spacing="2">
    SUA JORNADA COMEÇA AQUI
  </text>

  <!-- Plus Symbol -->
  <g transform="translate(255, 28)">
    <circle cx="10" cy="10" r="12" fill="#BD6C73"/>
    <path d="M10 5 L10 15 M5 10 L15 10" stroke="white" stroke-width="2.5" stroke-linecap="round"/>
  </g>
</svg>
